<svg width="204" height="204" viewBox="0 0 204 204" fill="none" xmlns="http://www.w3.org/2000/svg">
<path d="M58.8416 93.0436L59.2153 183.292C51.2738 195.626 42.3426 202.815 30.8487 203.048C19.5807 203.02 9.84751 196.953 1.33862 183.532L0.928427 84.4545C7.92769 53.99 15.587 40.8502 35.0102 23.4929C52.695 10.083 63.8614 6.50962 83.9648 0.727722L177.156 0.341898C194.263 4.34041 200.616 12.8002 202.435 29.6692L202.436 182.699C193.629 195.555 184.747 202.467 173.086 201.937C159.598 202.818 150.123 196.975 143.578 182.943L143.07 60.3226L93.0412 60.5297C73.3953 65.0702 66.537 73.0022 58.8416 93.0436Z" fill="url(#paint0_linear_4054_3668)"/>
<path d="M143.807 183.681L142.825 60.0796C159.612 25.3965 201.269 11.1173 202.665 16.9165C204.061 22.7158 202.665 182.701 202.665 182.701C199.722 194.472 190.893 202.186 173.096 202.186C155.578 202.186 147.731 194.472 143.807 183.681Z" fill="url(#paint1_linear_4054_3668)"/>
<path d="M143.807 183.681L142.825 60.0796C159.612 25.3965 201.269 11.1173 202.665 16.9165C204.061 22.7158 202.665 182.701 202.665 182.701C199.722 194.472 190.893 202.186 173.096 202.186C155.578 202.186 147.731 194.472 143.807 183.681Z" fill="url(#paint2_linear_4054_3668)"/>
<path d="M89.8534 61.0602C75.1389 64.9841 66.5549 74.8535 59.4434 88.5273C62.7044 67.9702 69.1743 55.5937 77.958 36.6384C91.5429 20.2546 99.6533 12.6156 114.639 0.598233L177.16 0.24016C180.902 1.30609 186.589 2.50446 190.893 5.145C195.521 7.98412 200.665 13.3342 202.665 16.9166C178.016 29.2583 159.254 34.5117 143.807 60.0792C123.206 60.0792 108.492 60.0792 89.8534 61.0602Z" fill="url(#paint3_linear_4054_3668)"/>
<defs>
<linearGradient id="paint0_linear_4054_3668" x1="101.968" y1="202.753" x2="101.132" y2="0.656649" gradientUnits="userSpaceOnUse">
<stop stop-color="#0FF2D7"/>
<stop offset="1" stop-color="#3B99D4"/>
</linearGradient>
<linearGradient id="paint1_linear_4054_3668" x1="203.398" y1="177.809" x2="144.175" y2="89.7659" gradientUnits="userSpaceOnUse">
<stop stop-color="#1CD1C3"/>
<stop offset="0.573968" stop-color="#2E9FDA"/>
</linearGradient>
<linearGradient id="paint2_linear_4054_3668" x1="144.11" y1="74.0706" x2="196.834" y2="14.0127" gradientUnits="userSpaceOnUse">
<stop stop-color="#41BBFC" stop-opacity="0.254902"/>
<stop offset="1" stop-color="#C638FF"/>
</linearGradient>
<linearGradient id="paint3_linear_4054_3668" x1="64.3482" y1="81.6606" x2="189.912" y2="4.16401" gradientUnits="userSpaceOnUse">
<stop offset="0.0729167" stop-color="#41BBFC" stop-opacity="0.17"/>
<stop offset="0.38161" stop-color="#41BBFC"/>
<stop offset="1" stop-color="#C638FF"/>
</linearGradient>
</defs>
</svg>
