<svg width="204" height="204" viewBox="0 0 204 204" fill="none" xmlns="http://www.w3.org/2000/svg">
<path d="M145.115 93.1481L144.742 183.396C152.683 195.73 161.614 202.919 173.108 203.152C184.376 203.124 194.11 197.058 202.618 183.636L203.029 84.559C196.029 54.0945 188.37 40.9547 168.947 23.5974C151.262 10.1875 140.096 6.61412 119.992 0.832214L26.8009 0.44639C9.6942 4.44491 3.34069 12.9047 1.52153 29.7737L1.52152 182.803C10.3278 195.659 19.21 202.572 30.8712 202.042C44.3594 202.923 53.8336 197.079 60.3792 183.047L60.8868 60.4271L110.916 60.6342C130.562 65.1747 137.42 73.1067 145.115 93.1481Z" fill="url(#paint0_linear_4054_3672)"/>
<path d="M60.1502 183.786L61.1318 60.1841C44.3446 25.5009 2.68761 11.2217 1.29207 17.021C-0.103469 22.8203 1.29207 182.805 1.29207 182.805C4.23498 194.577 13.0637 202.291 30.8612 202.291C48.3786 202.291 56.2257 194.576 60.1502 183.786Z" fill="url(#paint1_linear_4054_3672)"/>
<path d="M60.1502 183.786L61.1318 60.1841C44.3446 25.5009 2.68761 11.2217 1.29207 17.021C-0.103469 22.8203 1.29207 182.805 1.29207 182.805C4.23498 194.577 13.0637 202.291 30.8612 202.291C48.3786 202.291 56.2257 194.576 60.1502 183.786Z" fill="url(#paint2_linear_4054_3672)"/>
<path d="M114.108 61.1647C128.822 65.0886 137.406 74.958 144.518 88.6318C141.257 68.0747 134.787 55.6982 126.003 36.7429C112.418 20.359 104.308 12.7201 89.3222 0.702725L26.8013 0.344652C23.0589 1.41058 17.3718 2.60895 13.0678 5.24949C8.44003 8.08862 3.29623 13.4387 1.29613 17.0211C25.9453 29.3627 44.7073 34.6161 60.1542 60.1837C80.7546 60.1837 95.4691 60.1837 114.108 61.1647Z" fill="url(#paint3_linear_4054_3672)"/>
<defs>
<linearGradient id="paint0_linear_4054_3672" x1="101.989" y1="202.858" x2="102.825" y2="0.761141" gradientUnits="userSpaceOnUse">
<stop stop-color="#0FF2D7"/>
<stop offset="1" stop-color="#3B99D4"/>
</linearGradient>
<linearGradient id="paint1_linear_4054_3672" x1="0.558744" y1="177.913" x2="59.7819" y2="89.8704" gradientUnits="userSpaceOnUse">
<stop stop-color="#1CD1C3"/>
<stop offset="0.573968" stop-color="#2E9FDA"/>
</linearGradient>
<linearGradient id="paint2_linear_4054_3672" x1="59.8469" y1="74.1751" x2="7.12272" y2="14.1171" gradientUnits="userSpaceOnUse">
<stop offset="0.136063" stop-color="#41BBFC"/>
<stop offset="1" stop-color="#C638FF"/>
</linearGradient>
<linearGradient id="paint3_linear_4054_3672" x1="139.613" y1="81.7651" x2="14.0487" y2="4.2685" gradientUnits="userSpaceOnUse">
<stop offset="0.0729167" stop-color="#41BBFC" stop-opacity="0.17"/>
<stop offset="0.38161" stop-color="#41BBFC"/>
<stop offset="1" stop-color="#C638FF"/>
</linearGradient>
</defs>
</svg>
