<svg width="203" height="203" viewBox="0 0 203 203" fill="none" xmlns="http://www.w3.org/2000/svg">
<path d="M57.8772 110.126V19.8773C49.8847 7.57672 40.9238 0.424644 29.4291 0.239258C18.1613 0.313497 8.45325 6.42045 0 19.8773V118.955C7.12533 149.39 14.839 162.498 34.3339 179.775C52.0741 193.112 63.2551 196.639 83.3823 202.337H171.67C184.422 202.337 187.935 199.763 192.27 195.452C196.875 190.872 199.137 188.585 199.137 174.852L201.099 19.8773C192.239 7.05824 183.328 0.182519 171.67 0.760892C158.178 -0.0645707 148.728 5.81816 142.24 19.8773V142.498H92.2111C72.5465 138.039 65.6554 130.136 57.8772 110.126Z" fill="url(#paint0_linear_4322_29)"/>
<path d="M142.242 19.8586V142.48C159.173 177.093 197.767 192.429 199.138 186.624C200.51 180.819 202.081 21.3554 202.081 21.3554C192.61 5.372 183.044 0.594641 171.671 0.255691C160.298 -0.0831491 148.956 5.10826 142.242 19.8586Z" fill="url(#paint1_linear_4322_29)"/>
<path d="M142.242 19.8586V142.48C159.173 177.093 197.767 192.429 199.138 186.624C200.51 180.819 202.081 21.3554 202.081 21.3554C192.61 5.372 183.044 0.594641 171.671 0.255691C160.298 -0.0831491 148.956 5.10826 142.242 19.8586Z" fill="url(#paint2_linear_4322_29)"/>
<path d="M91.2308 142.479C75.5353 138.555 66.7066 130.707 59.8398 118.936C63.186 139.479 67.8839 147.511 76.746 166.43C90.3986 182.758 97.7771 190.363 112.812 202.318H181.262C189.019 200.074 195.305 193.553 199.136 186.623C169.707 178.775 155.974 167.984 142.24 142.479H91.2308Z" fill="url(#paint3_linear_4322_29)"/>
<defs>
<linearGradient id="paint0_linear_4322_29" x1="100.549" y1="0.239258" x2="100.549" y2="202.337" gradientUnits="userSpaceOnUse">
<stop stop-color="#0FF2D7"/>
<stop offset="1" stop-color="#3B99D4"/>
</linearGradient>
<linearGradient id="paint1_linear_4322_29" x1="202.081" y1="24.5068" x2="143.223" y2="112.794" gradientUnits="userSpaceOnUse">
<stop stop-color="#1CD1C3"/>
<stop offset="0.573968" stop-color="#2E9FDA"/>
</linearGradient>
<linearGradient id="paint2_linear_4322_29" x1="163.897" y1="60.6683" x2="196.195" y2="188.329" gradientUnits="userSpaceOnUse">
<stop offset="0.136063" stop-color="#41BBFC"/>
<stop offset="1" stop-color="#C638FF"/>
</linearGradient>
<linearGradient id="paint3_linear_4322_29" x1="67.6876" y1="141.498" x2="174.613" y2="195.451" gradientUnits="userSpaceOnUse">
<stop offset="0.0625" stop-color="#41BBFC" stop-opacity="0.06"/>
<stop offset="0.42834" stop-color="#41BBFC"/>
<stop offset="1" stop-color="#C638FF"/>
</linearGradient>
</defs>
</svg>
