<svg width="746" height="1204" viewBox="0 0 746 1204" fill="none" xmlns="http://www.w3.org/2000/svg">
<path d="M373.02 1053.66C496.079 1053.66 595.841 927.235 595.841 771.283V432.426C595.841 276.472 496.079 150.046 373.02 150.046C249.96 150.046 150.199 276.472 150.199 432.426V771.283C150.199 927.235 249.96 1053.66 373.02 1053.66Z" stroke="url(#paint0_linear_4271_74)" stroke-width="300" stroke-linejoin="round"/>
<path d="M464.618 390.599L461.988 802.678C432.924 918.933 390.65 918.933 369.513 921.575C371.504 978.221 362.982 1042.6 369.521 1093.32C372.131 1113.56 367.783 1171.26 372.148 1185.79C409.138 1185.79 422.349 1183.15 419.715 1183.15C417.082 1183.15 515.674 1175.22 604.65 1093.32C642.609 1058.37 677.068 1000.24 697.126 940.071C720.905 868.733 728.831 813.394 728.831 789.468C728.831 691.709 728.837 720.79 728.837 615.078C728.837 448.622 726.195 411.632 726.195 411.632C726.195 245.187 599.382 77.8208 541.245 76.0887C483.108 74.3566 472.544 194.984 464.618 390.599Z" fill="url(#paint1_linear_4271_74)"/>
<path d="M464.618 390.599L461.988 802.678C432.924 918.933 390.65 918.933 369.513 921.575C371.504 978.221 362.982 1042.6 369.521 1093.32C372.131 1113.56 367.783 1171.26 372.148 1185.79C409.138 1185.79 422.349 1183.15 419.715 1183.15C417.082 1183.15 515.674 1175.22 604.65 1093.32C642.609 1058.37 677.068 1000.24 697.126 940.071C720.905 868.733 728.831 813.394 728.831 789.468C728.831 691.709 728.837 720.79 728.837 615.078C728.837 448.622 726.195 411.632 726.195 411.632C726.195 245.187 599.382 77.8208 541.245 76.0887C483.108 74.3566 472.544 194.984 464.618 390.599Z" fill="url(#paint2_linear_4271_74)"/>
<path d="M282.312 390.636L284.942 802.715C314.005 918.97 356.28 918.97 377.417 921.612C375.426 978.258 383.948 1042.64 377.409 1093.35C374.799 1113.6 379.147 1171.3 374.782 1185.83C337.792 1185.83 324.581 1183.19 327.215 1183.19C329.848 1183.19 231.256 1175.26 142.279 1093.35C104.321 1058.41 69.8613 1000.28 49.804 940.108C26.0246 868.77 18.0983 813.431 18.0983 789.505C18.0983 691.746 18.0925 720.827 18.0925 615.115C18.0925 448.66 20.7347 411.669 20.7347 411.669C20.7347 245.224 147.548 77.8579 205.685 76.1258C263.822 74.3937 274.385 195.021 282.312 390.636Z" fill="url(#paint3_linear_4271_74)"/>
<path d="M282.312 390.636L284.942 802.715C314.005 918.97 356.28 918.97 377.417 921.612C375.426 978.258 383.948 1042.64 377.409 1093.35C374.799 1113.6 379.147 1171.3 374.782 1185.83C337.792 1185.83 324.581 1183.19 327.215 1183.19C329.848 1183.19 231.256 1175.26 142.279 1093.35C104.321 1058.41 69.8613 1000.28 49.804 940.108C26.0246 868.77 18.0983 813.431 18.0983 789.505C18.0983 691.746 18.0925 720.827 18.0925 615.115C18.0925 448.66 20.7347 411.669 20.7347 411.669C20.7347 245.224 147.548 77.8579 205.685 76.1258C263.822 74.3937 274.385 195.021 282.312 390.636Z" fill="url(#paint4_linear_4271_74)"/>
<defs>
<linearGradient id="paint0_linear_4271_74" x1="373.02" y1="150.046" x2="373.02" y2="1053.66" gradientUnits="userSpaceOnUse">
<stop stop-color="#1FD9DD"/>
<stop offset="1" stop-color="#3EBFFA"/>
</linearGradient>
<linearGradient id="paint1_linear_4271_74" x1="767.871" y1="300.489" x2="466.995" y2="751.803" gradientUnits="userSpaceOnUse">
<stop stop-color="#1CD1C3"/>
<stop offset="0.573968" stop-color="#2E9FDA"/>
</linearGradient>
<linearGradient id="paint2_linear_4271_74" x1="572.68" y1="485.342" x2="737.783" y2="1137.93" gradientUnits="userSpaceOnUse">
<stop stop-color="#20D9DD"/>
<stop offset="0.354167" stop-color="#41BBFC"/>
<stop offset="1" stop-color="#C638FF"/>
</linearGradient>
<linearGradient id="paint3_linear_4271_74" x1="-20.9417" y1="300.526" x2="279.934" y2="751.84" gradientUnits="userSpaceOnUse">
<stop stop-color="#1CD1C3"/>
<stop offset="0.573968" stop-color="#2E9FDA"/>
</linearGradient>
<linearGradient id="paint4_linear_4271_74" x1="174.25" y1="485.379" x2="9.14655" y2="1137.96" gradientUnits="userSpaceOnUse">
<stop stop-color="#20D9DD"/>
<stop offset="0.354167" stop-color="#41BBFC"/>
<stop offset="1" stop-color="#C638FF"/>
</linearGradient>
</defs>
</svg>
