<svg width="739" height="1204" viewBox="0 0 739 1204" fill="none" xmlns="http://www.w3.org/2000/svg">
<path d="M709.667 755.016C654.308 622.024 535.587 527.492 395.615 504.366C453.158 463.046 505.5 408.577 557.668 363.292C594.232 331.562 642.378 297.087 644.215 247.316C652.452 243.913 658.678 236.778 657.441 226.472C652.723 186.931 648.005 147.486 645.801 107.693C644.389 82.2854 650.751 50.8648 632.575 31.6643C636.906 18.0326 628.998 -1.10981 611.77 0.0503397C450.703 10.7624 301.086 -2.51593 140 7.5C136.431 2.07315 110.179 7.19063 109 7.5C97.5532 4.0969 100.628 32.0124 98.3274 46.9589C90.1484 99.707 84.7344 153.924 88.5435 207.311C88.8142 211.139 90.5545 214.368 92.9714 216.94C83.1102 230.823 88.2148 254.084 109.504 252.034C199.454 243.333 287.373 246.156 375.196 263.346C306.148 317.447 230.197 352.793 144.559 379.109C138.662 380.927 135.819 386.379 135.568 391.832C131.817 394.5 128.955 398.677 127.93 404.845C117.876 465.366 120.796 528.265 146.203 584.842C146.957 586.505 148.001 587.839 149.239 588.902C135.936 599.208 141.446 624.905 161.304 624.557C255.527 622.914 344.395 650.081 390.82 740.359C419.804 796.723 422.395 938.957 314.849 917.378C238.821 902.123 239.904 799.469 250.945 743.376C252.898 733.515 246.014 727.192 238.589 726.36C236.424 723.131 233.407 720.56 229.501 719.728C196.34 712.574 161.517 721.739 128.182 726.012C96.5872 730.053 65.0892 734.385 33.6106 739.219C24.6968 737.904 15.3576 741.752 12.2639 753.508C-77.8022 1093.99 348.764 1321.36 620.084 1139.68C746.037 1055.34 764.754 887.369 709.667 755.016Z" fill="url(#paint0_linear_4271_70)"/>
<defs>
<linearGradient id="paint0_linear_4271_70" x1="369.566" y1="-1.35265e-08" x2="369.566" y2="1203.91" gradientUnits="userSpaceOnUse">
<stop stop-color="#41BCFD"/>
<stop offset="1" stop-color="#1ADDD8"/>
</linearGradient>
</defs>
</svg>
