<svg width="183" height="204" viewBox="0 0 183 204" fill="none" xmlns="http://www.w3.org/2000/svg">
<path d="M129.904 63.1577L129.962 183.23C137.093 195.561 145.115 202.746 155.444 202.974C165.569 202.942 174.318 196.871 181.97 183.446L182.38 84.3686C182.375 72.9073 181.677 59.1734 180.579 52.3061C179.481 45.4388 177.291 41.515 175.1 36.6082C173.479 32.9779 170.42 27.0061 169.623 25.8161C166.338 20.9099 163.053 16.0036 155.39 12.0755C148.286 8.43321 150.589 9.52867 144.445 7.16691C136.783 4.22167 130.673 3.0402 123.651 2.2522C119.273 1.76097 113.801 0.678826 107.798 0.676726L7.10953 0.675774C1.90931 12.9916 3.5511 9.85501 1.90931 26.7247L1.26356 182.697C9.17157 195.549 17.1502 202.458 27.6292 201.923C39.7494 202.799 48.2655 196.951 54.1533 182.916L54.0856 41.4621L106.16 41.4845C110.537 41.4863 112.988 42.005 114.915 42.4692C119.311 43.5283 121.979 45.7544 123.672 47.3778C124.729 48.3917 126.405 50.4173 128.053 55.2274C128.749 57.2586 129.903 59.7589 129.904 63.1577Z" fill="url(#paint0_linear_4054_3676)"/>
<path d="M55.0845 182.974L55.0845 38.4971C40.0902 4.32142 3.40896 -3.51466 2.15918 2.20135C0.909391 7.91735 1.1817 182.699 1.1817 182.699C9.58355 198.487 16.8775 201.337 27.6652 202.319C37.8309 202.695 49.022 197.487 55.0845 182.974Z" fill="url(#paint1_linear_4054_3676)"/>
<path d="M55.0845 182.974L55.0845 38.4971C40.0902 4.32142 3.40896 -3.51466 2.15918 2.20135C0.909391 7.91735 1.1817 182.699 1.1817 182.699C9.58355 198.487 16.8775 201.337 27.6652 202.319C37.8309 202.695 49.022 197.487 55.0845 182.974Z" fill="url(#paint2_linear_4054_3676)"/>
<path d="M54.9147 130.61C85.7251 117.266 123.55 125.981 140.447 138.555C144.402 141.498 154.211 143.46 160.067 146.403C165.087 147.384 180.654 151.553 182.629 151.308C180.446 143.268 175.032 132.471 168.896 126.459C164.375 122.03 164.368 123.177 160.067 117.71C144.41 106.561 143.624 103.89 145.352 96.1411C147.081 88.3926 86.4845 69.3611 51.5563 76.9212C42.6282 78.4078 15.5246 103.366 11.0981 108.053C39.4727 116.48 37.0983 113.222 54.9147 130.61Z" fill="url(#paint3_linear_4054_3676)"/>
<defs>
<linearGradient id="paint0_linear_4054_3676" x1="158.133" y1="128.745" x2="92.3722" y2="0.612896" gradientUnits="userSpaceOnUse">
<stop stop-color="#1ADDD8"/>
<stop offset="1" stop-color="#3B99D4"/>
</linearGradient>
<linearGradient id="paint1_linear_4054_3676" x1="1.9604" y1="177.477" x2="62.2734" y2="96.1215" gradientUnits="userSpaceOnUse">
<stop stop-color="#1CD1C3"/>
<stop offset="0.573968" stop-color="#2E9FDA"/>
</linearGradient>
<linearGradient id="paint2_linear_4054_3676" x1="42.4719" y1="213.493" x2="36.3692" y2="127.706" gradientUnits="userSpaceOnUse">
<stop offset="0.136063" stop-color="#41BBFC"/>
<stop offset="0.96875" stop-color="#C638FF"/>
</linearGradient>
<linearGradient id="paint3_linear_4054_3676" x1="166.502" y1="135.973" x2="63.8085" y2="123.616" gradientUnits="userSpaceOnUse">
<stop offset="0.0392616" stop-color="#1ADDD8" stop-opacity="0"/>
<stop offset="0.385197" stop-color="#1BDCD8"/>
<stop offset="1" stop-color="#C638FF"/>
</linearGradient>
</defs>
</svg>
