<svg width="308" height="470" viewBox="0 0 308 470" fill="none" xmlns="http://www.w3.org/2000/svg">
<g filter="url(#filter0_d_4402_24)">
<path d="M43.4277 42.0919C43.4277 32.9685 50.8237 25.5725 59.9471 25.5725L254.441 25.5725C260.523 25.5725 265.454 30.5032 265.454 36.5854L265.454 323.928C265.454 333.052 258.058 340.448 248.935 340.448L59.9471 340.448C50.8237 340.448 43.4277 333.052 43.4277 323.928L43.4277 42.0919Z" fill="url(#paint0_linear_4402_24)"/>
</g>
<rect x="80.3083" y="26.885" width="180.47" height="286.295" rx="9.91162" fill="url(#paint1_linear_4402_24)" stroke="url(#paint2_linear_4402_24)" stroke-width="2.20258"/>
<path d="M145.97 91.6036L145.97 95.3036L130.82 95.3036L130.82 107.054L143.12 107.054L143.12 110.754L130.82 110.754L130.82 126.454L126.27 126.454L126.27 91.6036L145.97 91.6036ZM156.015 103.504C156.815 101.937 157.949 100.72 159.415 99.8536C160.915 98.9869 162.732 98.5536 164.865 98.5536L164.865 103.254L163.665 103.254C158.565 103.254 156.015 106.02 156.015 111.554L156.015 126.454L151.465 126.454L151.465 99.0536L156.015 99.0536L156.015 103.504ZM172.468 94.6036C171.601 94.6036 170.868 94.3036 170.268 93.7036C169.668 93.1036 169.368 92.3703 169.368 91.5036C169.368 90.6369 169.668 89.9036 170.268 89.3036C170.868 88.7036 171.601 88.4036 172.468 88.4036C173.301 88.4036 174.001 88.7036 174.568 89.3036C175.168 89.9036 175.468 90.6369 175.468 91.5036C175.468 92.3703 175.168 93.1036 174.568 93.7036C174.001 94.3036 173.301 94.6036 172.468 94.6036ZM174.668 99.0536L174.668 126.454L170.118 126.454L170.118 99.0536L174.668 99.0536Z" fill="white" fill-opacity="0.87"/>
<path d="M108.04 223.494C109.853 222.054 110.68 221.387 110.52 221.494C115.747 217.174 119.853 213.627 122.84 210.854C125.88 208.08 128.44 205.174 130.52 202.134C132.6 199.094 133.64 196.134 133.64 193.254C133.64 191.067 133.133 189.36 132.12 188.134C131.107 186.907 129.587 186.294 127.56 186.294C125.533 186.294 123.933 187.067 122.76 188.614C121.64 190.107 121.08 192.24 121.08 195.014L107.88 195.014C107.987 190.48 108.947 186.694 110.76 183.654C112.627 180.614 115.053 178.374 118.04 176.934C121.08 175.494 124.44 174.774 128.12 174.774C134.467 174.774 139.24 176.4 142.44 179.654C145.693 182.907 147.32 187.147 147.32 192.374C147.32 198.08 145.373 203.387 141.48 208.294C137.587 213.147 132.627 217.894 126.6 222.534L148.2 222.534L148.2 233.654L108.04 233.654L108.04 223.494ZM153.743 223.494C155.556 222.054 156.383 221.387 156.223 221.494C161.45 217.174 165.556 213.627 168.543 210.854C171.583 208.08 174.143 205.174 176.223 202.134C178.303 199.094 179.343 196.134 179.343 193.254C179.343 191.067 178.836 189.36 177.823 188.134C176.81 186.907 175.29 186.294 173.263 186.294C171.236 186.294 169.636 187.067 168.463 188.614C167.343 190.107 166.783 192.24 166.783 195.014L153.583 195.014C153.69 190.48 154.65 186.694 156.463 183.654C158.33 180.614 160.756 178.374 163.743 176.934C166.783 175.494 170.143 174.774 173.823 174.774C180.17 174.774 184.943 176.4 188.143 179.654C191.396 182.907 193.023 187.147 193.023 192.374C193.023 198.08 191.076 203.387 187.183 208.294C183.29 213.147 178.33 217.894 172.303 222.534L193.903 222.534L193.903 233.654L153.743 233.654L153.743 223.494Z" fill="white" fill-opacity="0.87"/>
<g filter="url(#filter1_d_4402_24)">
<path d="M105.428 373.74C105.428 365.294 112.275 358.447 120.721 358.447L184.415 358.447C190.497 358.447 195.428 363.378 195.428 369.46L195.428 393.454C195.428 402.839 187.82 410.447 178.435 410.447L119.745 410.447C111.838 410.447 105.428 404.037 105.428 396.13L105.428 373.74Z" fill="url(#paint3_linear_4402_24)"/>
</g>
<rect x="120.529" y="359.548" width="73.7974" height="42.7974" rx="9.91162" fill="url(#paint4_linear_4402_24)"/>
<path d="M138.055 375.875L138.055 374.504L141.161 374.504L141.161 386.447L139.641 386.447L139.641 375.875L138.055 375.875ZM143.38 383.787L143.38 382.648L149.178 374.619L150.979 374.619L150.979 382.482L152.631 382.482L152.631 383.787L150.979 383.787L150.979 386.447L149.492 386.447L149.492 383.787L143.38 383.787ZM149.558 376.188L145.114 382.482L149.558 382.482L149.558 376.188ZM154.859 386.546C154.573 386.546 154.331 386.447 154.132 386.249C153.934 386.051 153.835 385.808 153.835 385.522C153.835 385.236 153.934 384.993 154.132 384.795C154.331 384.597 154.573 384.498 154.859 384.498C155.135 384.498 155.366 384.597 155.553 384.795C155.751 384.993 155.85 385.236 155.85 385.522C155.85 385.808 155.751 386.051 155.553 386.249C155.366 386.447 155.135 386.546 154.859 386.546ZM154.859 379.476C154.573 379.476 154.331 379.377 154.132 379.178C153.934 378.98 153.835 378.738 153.835 378.452C153.835 378.165 153.934 377.923 154.132 377.725C154.331 377.527 154.573 377.427 154.859 377.427C155.135 377.427 155.366 377.527 155.553 377.725C155.751 377.923 155.85 378.165 155.85 378.452C155.85 378.738 155.751 378.98 155.553 379.178C155.366 379.377 155.135 379.476 154.859 379.476ZM157.649 380.351C157.649 378.457 157.958 376.981 158.574 375.924C159.191 374.856 160.27 374.322 161.812 374.322C163.343 374.322 164.417 374.856 165.033 375.924C165.65 376.981 165.958 378.457 165.958 380.351C165.958 382.279 165.65 383.776 165.033 384.845C164.417 385.913 163.343 386.447 161.812 386.447C160.27 386.447 159.191 385.913 158.574 384.845C157.958 383.776 157.649 382.279 157.649 380.351ZM164.472 380.351C164.472 379.393 164.406 378.584 164.274 377.923C164.152 377.251 163.894 376.712 163.497 376.304C163.112 375.897 162.55 375.693 161.812 375.693C161.063 375.693 160.491 375.897 160.094 376.304C159.709 376.712 159.45 377.251 159.318 377.923C159.197 378.584 159.136 379.393 159.136 380.351C159.136 381.343 159.197 382.174 159.318 382.846C159.45 383.518 159.709 384.057 160.094 384.465C160.491 384.872 161.063 385.076 161.812 385.076C162.55 385.076 163.112 384.872 163.497 384.465C163.894 384.057 164.152 383.518 164.274 382.846C164.406 382.174 164.472 381.343 164.472 380.351ZM168.022 380.351C168.022 378.457 168.331 376.981 168.947 375.924C169.564 374.856 170.643 374.322 172.185 374.322C173.716 374.322 174.79 374.856 175.406 375.924C176.023 376.981 176.331 378.457 176.331 380.351C176.331 382.279 176.023 383.776 175.406 384.845C174.79 385.913 173.716 386.447 172.185 386.447C170.643 386.447 169.564 385.913 168.947 384.845C168.331 383.776 168.022 382.279 168.022 380.351ZM174.845 380.351C174.845 379.393 174.779 378.584 174.647 377.923C174.525 377.251 174.267 376.712 173.87 376.304C173.485 375.897 172.923 375.693 172.185 375.693C171.436 375.693 170.864 375.897 170.467 376.304C170.082 376.712 169.823 377.251 169.691 377.923C169.57 378.584 169.509 379.393 169.509 380.351C169.509 381.343 169.57 382.174 169.691 382.846C169.823 383.518 170.082 384.057 170.467 384.465C170.864 384.872 171.436 385.076 172.185 385.076C172.923 385.076 173.485 384.872 173.87 384.465C174.267 384.057 174.525 383.518 174.647 382.846C174.779 382.174 174.845 381.343 174.845 380.351Z" fill="white" fill-opacity="0.87"/>
<rect x="120.529" y="359.548" width="73.7974" height="42.7974" rx="9.91162" stroke="url(#paint5_linear_4402_24)" stroke-width="2.20258"/>
<defs>
<filter id="filter0_d_4402_24" x="0.946037" y="0.0834885" width="306.989" height="399.838" filterUnits="userSpaceOnUse" color-interpolation-filters="sRGB">
<feFlood flood-opacity="0" result="BackgroundImageFix"/>
<feColorMatrix in="SourceAlpha" type="matrix" values="0 0 0 0 0 0 0 0 0 0 0 0 0 0 0 0 0 0 127 0" result="hardAlpha"/>
<feOffset dy="16.9927"/>
<feGaussianBlur stdDeviation="21.2408"/>
<feComposite in2="hardAlpha" operator="out"/>
<feColorMatrix type="matrix" values="0 0 0 0 0.0705882 0 0 0 0 0.0235294 0 0 0 0 0.262745 0 0 0 1 0"/>
<feBlend mode="normal" in2="BackgroundImageFix" result="effect1_dropShadow_4402_24"/>
<feBlend mode="normal" in="SourceGraphic" in2="effect1_dropShadow_4402_24" result="shape"/>
</filter>
<filter id="filter1_d_4402_24" x="62.946" y="332.958" width="174.963" height="136.963" filterUnits="userSpaceOnUse" color-interpolation-filters="sRGB">
<feFlood flood-opacity="0" result="BackgroundImageFix"/>
<feColorMatrix in="SourceAlpha" type="matrix" values="0 0 0 0 0 0 0 0 0 0 0 0 0 0 0 0 0 0 127 0" result="hardAlpha"/>
<feOffset dy="16.9927"/>
<feGaussianBlur stdDeviation="21.2408"/>
<feComposite in2="hardAlpha" operator="out"/>
<feColorMatrix type="matrix" values="0 0 0 0 0.0705882 0 0 0 0 0.0235294 0 0 0 0 0.262745 0 0 0 1 0"/>
<feBlend mode="normal" in2="BackgroundImageFix" result="effect1_dropShadow_4402_24"/>
<feBlend mode="normal" in="SourceGraphic" in2="effect1_dropShadow_4402_24" result="shape"/>
</filter>
<linearGradient id="paint0_linear_4402_24" x1="246.367" y1="37.3355" x2="257.641" y2="301.684" gradientUnits="userSpaceOnUse">
<stop offset="0.0602708" stop-color="#3F238A"/>
<stop offset="0.126222" stop-color="#2B1564"/>
<stop offset="0.211728" stop-color="#2D146F"/>
<stop offset="0.646899" stop-color="#2B1C56"/>
<stop offset="0.913672" stop-color="#33216C"/>
<stop offset="1" stop-color="#251652"/>
</linearGradient>
<linearGradient id="paint1_linear_4402_24" x1="97.4743" y1="25.7837" x2="354.2" y2="198.005" gradientUnits="userSpaceOnUse">
<stop stop-color="#2E1371"/>
<stop offset="1" stop-color="#21232F"/>
</linearGradient>
<linearGradient id="paint2_linear_4402_24" x1="104.781" y1="-6.67227" x2="244.563" y2="99.3687" gradientUnits="userSpaceOnUse">
<stop stop-color="#09FBD3"/>
<stop offset="1" stop-color="#09FBD3" stop-opacity="0"/>
</linearGradient>
<linearGradient id="paint3_linear_4402_24" x1="174.993" y1="361.719" x2="176.888" y2="400.314" gradientUnits="userSpaceOnUse">
<stop offset="0.0602708" stop-color="#3F238A"/>
<stop offset="0.126222" stop-color="#2B1564"/>
<stop offset="0.211728" stop-color="#2D146F"/>
<stop offset="0.646899" stop-color="#2B1C56"/>
<stop offset="0.913672" stop-color="#33216C"/>
<stop offset="1" stop-color="#251652"/>
</linearGradient>
<linearGradient id="paint4_linear_4402_24" x1="127.028" y1="358.447" x2="161.926" y2="416.023" gradientUnits="userSpaceOnUse">
<stop stop-color="#2E1371"/>
<stop offset="1" stop-color="#202442"/>
</linearGradient>
<linearGradient id="paint5_linear_4402_24" x1="130.068" y1="353.385" x2="147.879" y2="386.139" gradientUnits="userSpaceOnUse">
<stop stop-color="#09FBD3"/>
<stop offset="1" stop-color="#09FBD3" stop-opacity="0"/>
</linearGradient>
</defs>
</svg>
