<svg width="309" height="482" viewBox="0 0 309 482" fill="none" xmlns="http://www.w3.org/2000/svg">
<g filter="url(#filter0_d_4402_27)">
<path d="M43.4473 42.1036C43.4473 32.9802 50.8432 25.5842 59.9666 25.5842L254.571 25.5842C260.653 25.5842 265.584 30.5149 265.584 36.5971L265.584 324.096C265.584 333.22 258.188 340.616 249.065 340.616L59.9666 340.616C50.8432 340.616 43.4473 333.22 43.4473 324.096L43.4473 42.1036Z" fill="url(#paint0_linear_4402_27)"/>
</g>
<rect x="81.4529" y="26.8991" width="180.561" height="286.438" rx="9.91162" fill="url(#paint1_linear_4402_27)" stroke="url(#paint2_linear_4402_27)" stroke-width="2.20258"/>
<path d="M139.91 126.887C137.61 126.887 135.543 126.487 133.71 125.687C131.91 124.853 130.493 123.72 129.46 122.287C128.426 120.82 127.893 119.137 127.86 117.237L132.71 117.237C132.876 118.87 133.543 120.253 134.71 121.387C135.91 122.487 137.643 123.037 139.91 123.037C142.076 123.037 143.776 122.503 145.01 121.437C146.276 120.337 146.91 118.937 146.91 117.237C146.91 115.903 146.543 114.82 145.81 113.987C145.076 113.153 144.16 112.52 143.06 112.087C141.96 111.653 140.476 111.187 138.61 110.687C136.31 110.087 134.46 109.487 133.06 108.887C131.693 108.287 130.51 107.353 129.51 106.087C128.543 104.787 128.06 103.053 128.06 100.887C128.06 98.9866 128.543 97.3033 129.51 95.8366C130.476 94.37 131.826 93.2366 133.56 92.4366C135.326 91.6366 137.343 91.2366 139.61 91.2366C142.876 91.2366 145.543 92.0533 147.61 93.6866C149.71 95.32 150.893 97.4866 151.16 100.187L146.16 100.187C145.993 98.8533 145.293 97.6866 144.06 96.6866C142.826 95.6533 141.193 95.1366 139.16 95.1366C137.26 95.1366 135.71 95.6366 134.51 96.6366C133.31 97.6033 132.71 98.97 132.71 100.737C132.71 102.003 133.06 103.037 133.76 103.837C134.493 104.637 135.376 105.253 136.41 105.687C137.476 106.087 138.96 106.553 140.86 107.087C143.16 107.72 145.01 108.353 146.41 108.987C147.81 109.587 149.01 110.537 150.01 111.837C151.01 113.103 151.51 114.837 151.51 117.037C151.51 118.737 151.06 120.337 150.16 121.837C149.26 123.337 147.926 124.553 146.16 125.487C144.393 126.42 142.31 126.887 139.91 126.887ZM182.505 99.1366L182.505 126.537L177.955 126.537L177.955 122.487C177.089 123.887 175.872 124.987 174.305 125.787C172.772 126.553 171.072 126.937 169.205 126.937C167.072 126.937 165.155 126.503 163.455 125.637C161.755 124.737 160.405 123.403 159.405 121.637C158.439 119.87 157.955 117.72 157.955 115.187L157.955 99.1366L162.455 99.1366L162.455 114.587C162.455 117.287 163.139 119.37 164.505 120.837C165.872 122.27 167.739 122.987 170.105 122.987C172.539 122.987 174.455 122.237 175.855 120.737C177.255 119.237 177.955 117.053 177.955 114.187L177.955 99.1366L182.505 99.1366ZM203.538 98.6366C206.871 98.6366 209.571 99.6533 211.638 101.687C213.705 103.687 214.738 106.587 214.738 110.387L214.738 126.537L210.238 126.537L210.238 111.037C210.238 108.303 209.555 106.22 208.188 104.787C206.821 103.32 204.955 102.587 202.588 102.587C200.188 102.587 198.271 103.337 196.838 104.837C195.438 106.337 194.738 108.52 194.738 111.387L194.738 126.537L190.188 126.537L190.188 99.1366L194.738 99.1366L194.738 103.037C195.638 101.637 196.855 100.553 198.388 99.7866C199.955 99.02 201.671 98.6366 203.538 98.6366Z" fill="white" fill-opacity="0.87"/>
<path d="M125.13 223.577C126.943 222.137 127.77 221.47 127.61 221.577C132.836 217.257 136.943 213.71 139.93 210.937C142.97 208.163 145.53 205.257 147.61 202.217C149.69 199.177 150.73 196.217 150.73 193.337C150.73 191.15 150.223 189.443 149.21 188.217C148.196 186.99 146.676 186.377 144.65 186.377C142.623 186.377 141.023 187.15 139.85 188.697C138.73 190.19 138.17 192.323 138.17 195.097L124.97 195.097C125.076 190.563 126.036 186.777 127.85 183.737C129.716 180.697 132.143 178.457 135.13 177.017C138.17 175.577 141.53 174.857 145.21 174.857C151.556 174.857 156.33 176.483 159.53 179.737C162.783 182.99 164.41 187.23 164.41 192.457C164.41 198.163 162.463 203.47 158.57 208.377C154.676 213.23 149.716 217.977 143.69 222.617L165.29 222.617L165.29 233.737L125.13 233.737L125.13 223.577ZM171.633 224.137L171.633 213.097L196.913 176.937L212.193 176.937L212.193 212.297L218.753 212.297L218.753 224.137L212.193 224.137L212.193 234.537L198.513 234.537L198.513 224.137L171.633 224.137ZM199.473 191.977L186.033 212.297L199.473 212.297L199.473 191.977Z" fill="white" fill-opacity="0.87"/>
<g filter="url(#filter1_d_4402_27)">
<path d="M116.445 385.663C116.445 377.216 123.292 370.369 131.739 370.369L195.432 370.369C201.515 370.369 206.445 375.3 206.445 381.382L206.445 405.376C206.445 414.761 198.837 422.369 189.453 422.369L130.762 422.369C122.855 422.369 116.445 415.959 116.445 408.052L116.445 385.663Z" fill="url(#paint3_linear_4402_27)"/>
</g>
<rect x="131.547" y="371.47" width="73.7974" height="42.7974" rx="9.91162" fill="url(#paint4_linear_4402_27)"/>
<path d="M148.573 387.797L148.573 386.426L151.679 386.426L151.679 398.369L150.159 398.369L150.159 387.797L148.573 387.797ZM160.918 389.267C160.676 388.045 159.922 387.433 158.655 387.433C157.675 387.433 156.943 387.813 156.458 388.573C155.973 389.322 155.737 390.561 155.748 392.29C156.001 391.717 156.419 391.271 157.003 390.952C157.598 390.622 158.259 390.456 158.985 390.456C160.12 390.456 161.023 390.809 161.695 391.514C162.377 392.218 162.719 393.193 162.719 394.438C162.719 395.186 162.57 395.858 162.273 396.453C161.986 397.048 161.546 397.521 160.951 397.874C160.368 398.226 159.657 398.402 158.82 398.402C157.686 398.402 156.799 398.149 156.161 397.642C155.522 397.136 155.076 396.436 154.823 395.544C154.569 394.652 154.443 393.551 154.443 392.24C154.443 388.199 155.852 386.178 158.672 386.178C159.751 386.178 160.599 386.47 161.216 387.053C161.832 387.637 162.196 388.375 162.306 389.267L160.918 389.267ZM158.672 391.728C158.198 391.728 157.752 391.827 157.333 392.026C156.915 392.213 156.574 392.505 156.309 392.901C156.056 393.287 155.929 393.76 155.929 394.322C155.929 395.159 156.172 395.842 156.656 396.37C157.141 396.888 157.835 397.147 158.738 397.147C159.509 397.147 160.12 396.91 160.571 396.436C161.034 395.952 161.265 395.302 161.265 394.487C161.265 393.628 161.045 392.956 160.604 392.472C160.164 391.976 159.52 391.728 158.672 391.728ZM165.474 398.468C165.187 398.468 164.945 398.369 164.747 398.171C164.549 397.973 164.449 397.73 164.449 397.444C164.449 397.158 164.549 396.915 164.747 396.717C164.945 396.519 165.187 396.42 165.474 396.42C165.749 396.42 165.98 396.519 166.167 396.717C166.366 396.915 166.465 397.158 166.465 397.444C166.465 397.73 166.366 397.973 166.167 398.171C165.98 398.369 165.749 398.468 165.474 398.468ZM165.474 391.398C165.187 391.398 164.945 391.299 164.747 391.101C164.549 390.902 164.449 390.66 164.449 390.374C164.449 390.087 164.549 389.845 164.747 389.647C164.945 389.449 165.187 389.35 165.474 389.35C165.749 389.35 165.98 389.449 166.167 389.647C166.366 389.845 166.465 390.087 166.465 390.374C166.465 390.66 166.366 390.902 166.167 391.101C165.98 391.299 165.749 391.398 165.474 391.398ZM168.264 392.273C168.264 390.379 168.572 388.904 169.189 387.846C169.805 386.778 170.885 386.244 172.427 386.244C173.957 386.244 175.031 386.778 175.648 387.846C176.265 388.904 176.573 390.379 176.573 392.273C176.573 394.201 176.265 395.699 175.648 396.767C175.031 397.835 173.957 398.369 172.427 398.369C170.885 398.369 169.805 397.835 169.189 396.767C168.572 395.699 168.264 394.201 168.264 392.273ZM175.086 392.273C175.086 391.315 175.02 390.506 174.888 389.845C174.767 389.173 174.508 388.634 174.111 388.226C173.726 387.819 173.164 387.615 172.427 387.615C171.678 387.615 171.105 387.819 170.708 388.226C170.323 388.634 170.064 389.173 169.932 389.845C169.811 390.506 169.75 391.315 169.75 392.273C169.75 393.265 169.811 394.096 169.932 394.768C170.064 395.44 170.323 395.979 170.708 396.387C171.105 396.794 171.678 396.998 172.427 396.998C173.164 396.998 173.726 396.794 174.111 396.387C174.508 395.979 174.767 395.44 174.888 394.768C175.02 394.096 175.086 393.265 175.086 392.273ZM178.637 392.273C178.637 390.379 178.945 388.904 179.562 387.846C180.178 386.778 181.258 386.244 182.8 386.244C184.33 386.244 185.404 386.778 186.021 387.846C186.638 388.904 186.946 390.379 186.946 392.273C186.946 394.201 186.638 395.699 186.021 396.767C185.404 397.835 184.33 398.369 182.8 398.369C181.258 398.369 180.178 397.835 179.562 396.767C178.945 395.699 178.637 394.201 178.637 392.273ZM185.459 392.273C185.459 391.315 185.393 390.506 185.261 389.845C185.14 389.173 184.881 388.634 184.484 388.226C184.099 387.819 183.537 387.615 182.8 387.615C182.051 387.615 181.478 387.819 181.081 388.226C180.696 388.634 180.437 389.173 180.305 389.845C180.184 390.506 180.123 391.315 180.123 392.273C180.123 393.265 180.184 394.096 180.305 394.768C180.437 395.44 180.696 395.979 181.081 396.387C181.478 396.794 182.051 396.998 182.8 396.998C183.537 396.998 184.099 396.794 184.484 396.387C184.881 395.979 185.14 395.44 185.261 394.768C185.393 394.096 185.459 393.265 185.459 392.273Z" fill="white" fill-opacity="0.87"/>
<rect x="131.547" y="371.47" width="73.7974" height="42.7974" rx="9.91162" stroke="url(#paint5_linear_4402_27)" stroke-width="2.20258"/>
<defs>
<filter id="filter0_d_4402_27" x="0.965569" y="0.0952072" width="307.1" height="399.995" filterUnits="userSpaceOnUse" color-interpolation-filters="sRGB">
<feFlood flood-opacity="0" result="BackgroundImageFix"/>
<feColorMatrix in="SourceAlpha" type="matrix" values="0 0 0 0 0 0 0 0 0 0 0 0 0 0 0 0 0 0 127 0" result="hardAlpha"/>
<feOffset dy="16.9927"/>
<feGaussianBlur stdDeviation="21.2408"/>
<feComposite in2="hardAlpha" operator="out"/>
<feColorMatrix type="matrix" values="0 0 0 0 0.0705882 0 0 0 0 0.0235294 0 0 0 0 0.262745 0 0 0 1 0"/>
<feBlend mode="normal" in2="BackgroundImageFix" result="effect1_dropShadow_4402_27"/>
<feBlend mode="normal" in="SourceGraphic" in2="effect1_dropShadow_4402_27" result="shape"/>
</filter>
<filter id="filter1_d_4402_27" x="73.9636" y="344.88" width="174.963" height="136.963" filterUnits="userSpaceOnUse" color-interpolation-filters="sRGB">
<feFlood flood-opacity="0" result="BackgroundImageFix"/>
<feColorMatrix in="SourceAlpha" type="matrix" values="0 0 0 0 0 0 0 0 0 0 0 0 0 0 0 0 0 0 127 0" result="hardAlpha"/>
<feOffset dy="16.9927"/>
<feGaussianBlur stdDeviation="21.2408"/>
<feComposite in2="hardAlpha" operator="out"/>
<feColorMatrix type="matrix" values="0 0 0 0 0.0705882 0 0 0 0 0.0235294 0 0 0 0 0.262745 0 0 0 1 0"/>
<feBlend mode="normal" in2="BackgroundImageFix" result="effect1_dropShadow_4402_27"/>
<feBlend mode="normal" in="SourceGraphic" in2="effect1_dropShadow_4402_27" result="shape"/>
</filter>
<linearGradient id="paint0_linear_4402_27" x1="246.488" y1="37.3531" x2="257.767" y2="301.833" gradientUnits="userSpaceOnUse">
<stop offset="0.0602708" stop-color="#3F238A"/>
<stop offset="0.126222" stop-color="#2B1564"/>
<stop offset="0.211728" stop-color="#2D146F"/>
<stop offset="0.646899" stop-color="#2B1C56"/>
<stop offset="0.913672" stop-color="#33216C"/>
<stop offset="1" stop-color="#251652"/>
</linearGradient>
<linearGradient id="paint1_linear_4402_27" x1="98.6279" y1="25.7979" x2="355.481" y2="198.105" gradientUnits="userSpaceOnUse">
<stop stop-color="#2E1371"/>
<stop offset="1" stop-color="#21232F"/>
</linearGradient>
<linearGradient id="paint2_linear_4402_27" x1="105.938" y1="-6.67423" x2="251.237" y2="88.7275" gradientUnits="userSpaceOnUse">
<stop stop-color="#09FBD3"/>
<stop offset="1" stop-color="#09FBD3" stop-opacity="0"/>
</linearGradient>
<linearGradient id="paint3_linear_4402_27" x1="186.01" y1="373.641" x2="187.906" y2="412.236" gradientUnits="userSpaceOnUse">
<stop offset="0.0602708" stop-color="#3F238A"/>
<stop offset="0.126222" stop-color="#2B1564"/>
<stop offset="0.211728" stop-color="#2D146F"/>
<stop offset="0.646899" stop-color="#2B1C56"/>
<stop offset="0.913672" stop-color="#33216C"/>
<stop offset="1" stop-color="#251652"/>
</linearGradient>
<linearGradient id="paint4_linear_4402_27" x1="138.045" y1="370.369" x2="172.943" y2="427.946" gradientUnits="userSpaceOnUse">
<stop stop-color="#2E1371"/>
<stop offset="1" stop-color="#202442"/>
</linearGradient>
<linearGradient id="paint5_linear_4402_27" x1="141.085" y1="365.307" x2="158.896" y2="398.062" gradientUnits="userSpaceOnUse">
<stop stop-color="#09FBD3"/>
<stop offset="1" stop-color="#09FBD3" stop-opacity="0"/>
</linearGradient>
</defs>
</svg>
