<svg width="323" height="487" viewBox="0 0 323 487" fill="none" xmlns="http://www.w3.org/2000/svg">
<path d="M35.002 42.58C35.002 33.4566 42.3979 26.0605 51.5213 26.0605L269.448 26.0605C275.53 26.0605 280.461 30.9912 280.461 37.0735L280.461 334.501C280.461 346.232 270.951 355.742 259.22 355.742L51.5213 355.742C42.3979 355.742 35.002 348.346 35.002 339.222L35.002 42.58Z" fill="url(#paint0_linear_4402_25)"/>
<rect x="66.7829" y="27.1626" width="212.574" height="300.653" rx="9.91162" fill="url(#paint1_linear_4402_25)" stroke="url(#paint2_linear_4402_25)" stroke-width="2.20258"/>
<path d="M146.77 131.339C144.437 131.339 142.337 130.939 140.47 130.139C138.604 129.305 137.137 128.139 136.07 126.639C135.004 125.139 134.47 123.389 134.47 121.389L140.57 121.389C140.704 122.889 141.287 124.122 142.32 125.089C143.387 126.055 144.87 126.539 146.77 126.539C148.737 126.539 150.27 126.072 151.37 125.139C152.47 124.172 153.02 122.939 153.02 121.439C153.02 120.272 152.67 119.322 151.97 118.589C151.304 117.855 150.454 117.289 149.42 116.889C148.42 116.489 147.02 116.055 145.22 115.589C142.954 114.989 141.104 114.389 139.67 113.789C138.27 113.155 137.07 112.189 136.07 110.889C135.07 109.589 134.57 107.855 134.57 105.689C134.57 103.689 135.07 101.939 136.07 100.439C137.07 98.9385 138.47 97.7885 140.27 96.9885C142.07 96.1885 144.154 95.7885 146.52 95.7885C149.887 95.7885 152.637 96.6385 154.77 98.3385C156.937 100.005 158.137 102.305 158.37 105.239L152.07 105.239C151.97 103.972 151.37 102.889 150.27 101.989C149.17 101.089 147.72 100.639 145.92 100.639C144.287 100.639 142.954 101.055 141.92 101.889C140.887 102.722 140.37 103.922 140.37 105.489C140.37 106.555 140.687 107.439 141.32 108.139C141.987 108.805 142.82 109.339 143.82 109.739C144.82 110.139 146.187 110.572 147.92 111.039C150.22 111.672 152.087 112.305 153.52 112.939C154.987 113.572 156.22 114.555 157.22 115.889C158.254 117.189 158.77 118.939 158.77 121.139C158.77 122.905 158.287 124.572 157.32 126.139C156.387 127.705 155.004 128.972 153.17 129.939C151.37 130.872 149.237 131.339 146.77 131.339ZM163.596 117.089C163.596 114.322 164.163 111.872 165.296 109.739C166.463 107.605 168.029 105.955 169.996 104.789C171.996 103.589 174.196 102.989 176.596 102.989C178.763 102.989 180.646 103.422 182.246 104.289C183.879 105.122 185.179 106.172 186.146 107.439L186.146 103.439L191.896 103.439L191.896 130.989L186.146 130.989L186.146 126.889C185.179 128.189 183.863 129.272 182.196 130.139C180.529 131.005 178.629 131.439 176.496 131.439C174.129 131.439 171.963 130.839 169.996 129.639C168.029 128.405 166.463 126.705 165.296 124.539C164.163 122.339 163.596 119.855 163.596 117.089ZM186.146 117.189C186.146 115.289 185.746 113.639 184.946 112.239C184.179 110.839 183.163 109.772 181.896 109.039C180.629 108.305 179.263 107.939 177.796 107.939C176.329 107.939 174.963 108.305 173.696 109.039C172.429 109.739 171.396 110.789 170.596 112.189C169.829 113.555 169.446 115.189 169.446 117.089C169.446 118.989 169.829 120.655 170.596 122.089C171.396 123.522 172.429 124.622 173.696 125.389C174.996 126.122 176.363 126.489 177.796 126.489C179.263 126.489 180.629 126.122 181.896 125.389C183.163 124.655 184.179 123.589 184.946 122.189C185.746 120.755 186.146 119.089 186.146 117.189ZM206.033 108.089L206.033 123.339C206.033 124.372 206.266 125.122 206.733 125.589C207.233 126.022 208.066 126.239 209.233 126.239L212.733 126.239L212.733 130.989L208.233 130.989C205.666 130.989 203.699 130.389 202.333 129.189C200.966 127.989 200.283 126.039 200.283 123.339L200.283 108.089L197.033 108.089L197.033 103.439L200.283 103.439L200.283 96.5885L206.033 96.5885L206.033 103.439L212.733 103.439L212.733 108.089L206.033 108.089Z" fill="white" fill-opacity="0.87"/>
<path d="M117.97 247.289C120.237 245.489 121.27 244.655 121.07 244.789C127.604 239.389 132.737 234.955 136.47 231.489C140.27 228.022 143.47 224.389 146.07 220.589C148.67 216.789 149.97 213.089 149.97 209.489C149.97 206.755 149.337 204.622 148.07 203.089C146.804 201.555 144.904 200.789 142.37 200.789C139.837 200.789 137.837 201.755 136.37 203.689C134.97 205.555 134.27 208.222 134.27 211.689L117.77 211.689C117.904 206.022 119.104 201.289 121.37 197.489C123.704 193.689 126.737 190.889 130.47 189.089C134.27 187.289 138.47 186.389 143.07 186.389C151.004 186.389 156.97 188.422 160.97 192.489C165.037 196.555 167.07 201.855 167.07 208.389C167.07 215.522 164.637 222.155 159.77 228.289C154.904 234.355 148.704 240.289 141.17 246.089L168.17 246.089L168.17 259.989L117.97 259.989L117.97 247.289ZM176.299 208.589C176.566 201.455 178.899 195.955 183.299 192.089C187.699 188.222 193.666 186.289 201.199 186.289C206.199 186.289 210.466 187.155 213.999 188.889C217.599 190.622 220.299 192.989 222.099 195.989C223.966 198.989 224.899 202.355 224.899 206.089C224.899 210.489 223.799 214.089 221.599 216.889C219.399 219.622 216.833 221.489 213.899 222.489L213.899 222.889C217.699 224.155 220.699 226.255 222.899 229.189C225.099 232.122 226.199 235.889 226.199 240.489C226.199 244.622 225.233 248.289 223.299 251.489C221.433 254.622 218.666 257.089 214.999 258.889C211.399 260.689 207.099 261.589 202.099 261.589C194.099 261.589 187.699 259.622 182.899 255.689C178.166 251.755 175.666 245.822 175.399 237.889L191.999 237.889C192.066 240.822 192.899 243.155 194.499 244.889C196.099 246.555 198.433 247.389 201.499 247.389C204.099 247.389 206.099 246.655 207.499 245.189C208.966 243.655 209.699 241.655 209.699 239.189C209.699 235.989 208.666 233.689 206.599 232.289C204.599 230.822 201.366 230.089 196.899 230.089L193.699 230.089L193.699 216.189L196.899 216.189C200.299 216.189 203.033 215.622 205.099 214.489C207.233 213.289 208.299 211.189 208.299 208.189C208.299 205.789 207.633 203.922 206.299 202.589C204.966 201.255 203.133 200.589 200.799 200.589C198.266 200.589 196.366 201.355 195.099 202.889C193.899 204.422 193.199 206.322 192.999 208.589L176.299 208.589Z" fill="white" fill-opacity="0.87"/>
<g filter="url(#filter0_d_4402_25)">
<path d="M114.002 390.354C114.002 381.908 120.849 375.061 129.295 375.061L192.989 375.061C199.071 375.061 204.002 379.991 204.002 386.073L204.002 410.068C204.002 419.453 196.394 427.061 187.009 427.061L128.319 427.061C120.412 427.061 114.002 420.651 114.002 412.744L114.002 390.354Z" fill="url(#paint3_linear_4402_25)"/>
</g>
<rect x="129.103" y="376.162" width="73.7974" height="42.7974" rx="9.91162" fill="url(#paint4_linear_4402_25)"/>
<path d="M147.13 392.488L147.13 391.117L150.235 391.117L150.235 403.061L148.716 403.061L148.716 392.488L147.13 392.488ZM160.169 392.29L155.576 403.061L154.056 403.061L158.715 392.439L152.338 392.439L152.338 391.15L160.169 391.15L160.169 392.29ZM162.562 403.16C162.276 403.16 162.034 403.061 161.835 402.862C161.637 402.664 161.538 402.422 161.538 402.135C161.538 401.849 161.637 401.607 161.835 401.409C162.034 401.21 162.276 401.111 162.562 401.111C162.838 401.111 163.069 401.21 163.256 401.409C163.454 401.607 163.553 401.849 163.553 402.135C163.553 402.422 163.454 402.664 163.256 402.862C163.069 403.061 162.838 403.16 162.562 403.16ZM162.562 396.089C162.276 396.089 162.034 395.99 161.835 395.792C161.637 395.594 161.538 395.352 161.538 395.065C161.538 394.779 161.637 394.537 161.835 394.338C162.034 394.14 162.276 394.041 162.562 394.041C162.838 394.041 163.069 394.14 163.256 394.338C163.454 394.537 163.553 394.779 163.553 395.065C163.553 395.352 163.454 395.594 163.256 395.792C163.069 395.99 162.838 396.089 162.562 396.089ZM165.352 396.965C165.352 395.071 165.661 393.595 166.277 392.538C166.894 391.469 167.973 390.935 169.515 390.935C171.046 390.935 172.12 391.469 172.736 392.538C173.353 393.595 173.661 395.071 173.661 396.965C173.661 398.892 173.353 400.39 172.736 401.458C172.12 402.526 171.046 403.061 169.515 403.061C167.973 403.061 166.894 402.526 166.277 401.458C165.661 400.39 165.352 398.892 165.352 396.965ZM172.175 396.965C172.175 396.007 172.109 395.197 171.977 394.537C171.855 393.865 171.597 393.325 171.2 392.918C170.815 392.51 170.253 392.306 169.515 392.306C168.766 392.306 168.194 392.51 167.797 392.918C167.412 393.325 167.153 393.865 167.021 394.537C166.9 395.197 166.839 396.007 166.839 396.965C166.839 397.956 166.9 398.788 167.021 399.459C167.153 400.131 167.412 400.671 167.797 401.078C168.194 401.486 168.766 401.689 169.515 401.689C170.253 401.689 170.815 401.486 171.2 401.078C171.597 400.671 171.855 400.131 171.977 399.459C172.109 398.788 172.175 397.956 172.175 396.965ZM175.725 396.965C175.725 395.071 176.034 393.595 176.65 392.538C177.267 391.469 178.346 390.935 179.888 390.935C181.419 390.935 182.493 391.469 183.109 392.538C183.726 393.595 184.034 395.071 184.034 396.965C184.034 398.892 183.726 400.39 183.109 401.458C182.493 402.526 181.419 403.061 179.888 403.061C178.346 403.061 177.267 402.526 176.65 401.458C176.034 400.39 175.725 398.892 175.725 396.965ZM182.548 396.965C182.548 396.007 182.482 395.197 182.35 394.537C182.228 393.865 181.97 393.325 181.573 392.918C181.188 392.51 180.626 392.306 179.888 392.306C179.139 392.306 178.567 392.51 178.17 392.918C177.785 393.325 177.526 393.865 177.394 394.537C177.273 395.197 177.212 396.007 177.212 396.965C177.212 397.956 177.273 398.788 177.394 399.459C177.526 400.131 177.785 400.671 178.17 401.078C178.567 401.486 179.139 401.689 179.888 401.689C180.626 401.689 181.188 401.486 181.573 401.078C181.97 400.671 182.228 400.131 182.35 399.459C182.482 398.788 182.548 397.956 182.548 396.965Z" fill="white" fill-opacity="0.87"/>
<rect x="129.103" y="376.162" width="73.7974" height="42.7974" rx="9.91162" stroke="url(#paint5_linear_4402_25)" stroke-width="2.20258"/>
<defs>
<filter id="filter0_d_4402_25" x="71.5203" y="349.572" width="174.963" height="136.963" filterUnits="userSpaceOnUse" color-interpolation-filters="sRGB">
<feFlood flood-opacity="0" result="BackgroundImageFix"/>
<feColorMatrix in="SourceAlpha" type="matrix" values="0 0 0 0 0 0 0 0 0 0 0 0 0 0 0 0 0 0 127 0" result="hardAlpha"/>
<feOffset dy="16.9927"/>
<feGaussianBlur stdDeviation="21.2408"/>
<feComposite in2="hardAlpha" operator="out"/>
<feColorMatrix type="matrix" values="0 0 0 0 0.0705882 0 0 0 0 0.0235294 0 0 0 0 0.262745 0 0 0 1 0"/>
<feBlend mode="normal" in2="BackgroundImageFix" result="effect1_dropShadow_4402_25"/>
<feBlend mode="normal" in="SourceGraphic" in2="effect1_dropShadow_4402_25" result="shape"/>
</filter>
<linearGradient id="paint0_linear_4402_25" x1="244.567" y1="26.0605" x2="261.866" y2="323.99" gradientUnits="userSpaceOnUse">
<stop stop-color="#9E0F5D"/>
<stop offset="0.0655811" stop-color="#B83484"/>
<stop offset="0.133974" stop-color="#911060"/>
<stop offset="0.730575" stop-color="#4A0F64"/>
<stop offset="0.907126" stop-color="#55147E"/>
<stop offset="1" stop-color="#380B67"/>
</linearGradient>
<linearGradient id="paint1_linear_4402_25" x1="51.6454" y1="-12.4921" x2="348.103" y2="159.523" gradientUnits="userSpaceOnUse">
<stop stop-color="#B6116B"/>
<stop offset="1" stop-color="#3D1581"/>
</linearGradient>
<linearGradient id="paint2_linear_4402_25" x1="87.1593" y1="26.0613" x2="217.149" y2="103.419" gradientUnits="userSpaceOnUse">
<stop stop-color="#FE53BB"/>
<stop offset="1" stop-color="#FE53BB" stop-opacity="0"/>
</linearGradient>
<linearGradient id="paint3_linear_4402_25" x1="183.567" y1="378.332" x2="185.462" y2="416.928" gradientUnits="userSpaceOnUse">
<stop offset="0.0602708" stop-color="#3F238A"/>
<stop offset="0.126222" stop-color="#2B1564"/>
<stop offset="0.211728" stop-color="#2D146F"/>
<stop offset="0.646899" stop-color="#2B1C56"/>
<stop offset="0.913672" stop-color="#33216C"/>
<stop offset="1" stop-color="#251652"/>
</linearGradient>
<linearGradient id="paint4_linear_4402_25" x1="135.602" y1="375.061" x2="170.5" y2="432.637" gradientUnits="userSpaceOnUse">
<stop stop-color="#2E1371"/>
<stop offset="1" stop-color="#202442"/>
</linearGradient>
<linearGradient id="paint5_linear_4402_25" x1="138.642" y1="369.998" x2="156.453" y2="402.753" gradientUnits="userSpaceOnUse">
<stop stop-color="#09FBD3"/>
<stop offset="1" stop-color="#09FBD3" stop-opacity="0"/>
</linearGradient>
</defs>
</svg>
