<svg width="308" height="483" viewBox="0 0 308 483" fill="none" xmlns="http://www.w3.org/2000/svg">
<g filter="url(#filter0_d_4495_34)">
<path d="M43 42.5194C43 33.396 50.396 26 59.5194 26L254.124 26C260.206 26 265.137 30.9307 265.137 37.0129L265.137 324.512C265.137 333.635 257.741 341.031 248.617 341.031L59.5194 341.031C50.396 341.031 43 333.635 43 324.512L43 42.5194Z" fill="url(#paint0_linear_4495_34)"/>
</g>
<rect x="81.0056" y="27.3149" width="180.561" height="286.438" rx="9.91162" fill="url(#paint1_linear_4495_34)" stroke="url(#paint2_linear_4495_34)" stroke-width="2.20258"/>
<path d="M139.463 127.302C137.163 127.302 135.096 126.902 133.263 126.102C131.462 125.269 130.046 124.136 129.012 122.702C127.979 121.236 127.446 119.552 127.412 117.652L132.263 117.652C132.429 119.286 133.096 120.669 134.262 121.802C135.462 122.902 137.196 123.452 139.463 123.452C141.629 123.452 143.329 122.919 144.562 121.852C145.829 120.752 146.463 119.352 146.463 117.652C146.463 116.319 146.096 115.236 145.363 114.402C144.629 113.569 143.713 112.936 142.613 112.502C141.513 112.069 140.029 111.602 138.163 111.102C135.863 110.502 134.013 109.902 132.613 109.302C131.246 108.702 130.062 107.769 129.062 106.502C128.096 105.202 127.613 103.469 127.613 101.302C127.613 99.4024 128.096 97.7191 129.063 96.2524C130.029 94.7857 131.379 93.6524 133.113 92.8524C134.879 92.0524 136.896 91.6524 139.163 91.6524C142.429 91.6524 145.096 92.4691 147.163 94.1024C149.263 95.7357 150.446 97.9024 150.712 100.602L145.713 100.602C145.546 99.2691 144.846 98.1024 143.613 97.1024C142.379 96.0691 140.746 95.5524 138.713 95.5524C136.813 95.5524 135.263 96.0524 134.063 97.0524C132.863 98.0191 132.263 99.3857 132.263 101.152C132.263 102.419 132.613 103.452 133.313 104.252C134.046 105.052 134.929 105.669 135.963 106.102C137.029 106.502 138.513 106.969 140.412 107.502C142.713 108.136 144.563 108.769 145.963 109.402C147.363 110.002 148.563 110.952 149.562 112.252C150.563 113.519 151.063 115.252 151.063 117.452C151.063 119.152 150.613 120.752 149.713 122.252C148.813 123.752 147.479 124.969 145.713 125.902C143.946 126.836 141.862 127.302 139.463 127.302ZM182.058 99.5524L182.058 126.952L177.508 126.952L177.508 122.902C176.642 124.302 175.425 125.402 173.858 126.202C172.325 126.969 170.625 127.352 168.758 127.352C166.625 127.352 164.708 126.919 163.008 126.052C161.308 125.152 159.958 123.819 158.958 122.052C157.992 120.286 157.508 118.136 157.508 115.602L157.508 99.5524L162.008 99.5524L162.008 115.002C162.008 117.702 162.692 119.786 164.058 121.252C165.425 122.686 167.292 123.402 169.658 123.402C172.092 123.402 174.008 122.652 175.408 121.152C176.808 119.652 177.508 117.469 177.508 114.602L177.508 99.5524L182.058 99.5524ZM203.091 99.0524C206.424 99.0524 209.124 100.069 211.191 102.102C213.257 104.102 214.291 107.002 214.291 110.802L214.291 126.952L209.791 126.952L209.791 111.452C209.791 108.719 209.107 106.636 207.741 105.202C206.374 103.736 204.507 103.002 202.141 103.002C199.741 103.002 197.824 103.752 196.391 105.252C194.991 106.752 194.291 108.936 194.291 111.802L194.291 126.952L189.741 126.952L189.741 99.5524L194.291 99.5524L194.291 103.452C195.191 102.052 196.407 100.969 197.941 100.202C199.507 99.4357 201.224 99.0524 203.091 99.0524Z" fill="white" fill-opacity="0.87"/>
<path d="M124.682 223.992C126.496 222.552 127.322 221.886 127.162 221.992C132.389 217.672 136.496 214.126 139.483 211.352C142.523 208.579 145.083 205.672 147.163 202.632C149.243 199.592 150.283 196.632 150.283 193.752C150.283 191.566 149.776 189.859 148.763 188.632C147.749 187.406 146.229 186.792 144.203 186.792C142.176 186.792 140.576 187.566 139.403 189.112C138.283 190.606 137.723 192.739 137.723 195.512L124.522 195.512C124.629 190.979 125.589 187.192 127.403 184.152C129.269 181.112 131.696 178.872 134.683 177.432C137.723 175.992 141.083 175.272 144.763 175.272C151.109 175.272 155.883 176.899 159.083 180.152C162.336 183.406 163.963 187.646 163.963 192.872C163.963 198.579 162.016 203.886 158.123 208.792C154.229 213.646 149.269 218.392 143.243 223.032L164.843 223.032L164.843 234.152L124.682 234.152L124.682 223.992ZM171.186 224.552L171.186 213.512L196.466 177.352L211.746 177.352L211.746 212.712L218.306 212.712L218.306 224.552L211.746 224.552L211.746 234.952L198.066 234.952L198.066 224.552L171.186 224.552ZM199.026 192.392L185.586 212.712L199.026 212.712L199.026 192.392Z" fill="white" fill-opacity="0.87"/>
<g filter="url(#filter1_d_4495_34)">
<path d="M115.998 386.078C115.998 377.632 122.845 370.785 131.291 370.785L194.985 370.785C201.067 370.785 205.998 375.716 205.998 381.798L205.998 405.792C205.998 415.177 198.39 422.785 189.005 422.785L130.315 422.785C122.408 422.785 115.998 416.375 115.998 408.468L115.998 386.078Z" fill="url(#paint3_linear_4495_34)"/>
</g>
<rect x="131.099" y="371.886" width="73.7974" height="42.7974" rx="9.91162" fill="url(#paint4_linear_4495_34)"/>
<path d="M148.126 388.213L148.126 386.841L151.231 386.841L151.231 398.785L149.712 398.785L149.712 388.213L148.126 388.213ZM160.471 389.683C160.229 388.46 159.474 387.849 158.208 387.849C157.228 387.849 156.495 388.229 156.011 388.989C155.526 389.738 155.289 390.977 155.3 392.706C155.554 392.133 155.972 391.687 156.556 391.368C157.151 391.037 157.811 390.872 158.538 390.872C159.672 390.872 160.576 391.225 161.247 391.929C161.93 392.634 162.272 393.609 162.272 394.853C162.272 395.602 162.123 396.274 161.826 396.869C161.539 397.463 161.099 397.937 160.504 398.289C159.92 398.642 159.21 398.818 158.373 398.818C157.239 398.818 156.352 398.565 155.713 398.058C155.075 397.551 154.629 396.852 154.375 395.96C154.122 395.068 153.995 393.967 153.995 392.656C153.995 388.614 155.405 386.594 158.224 386.594C159.304 386.594 160.152 386.885 160.768 387.469C161.385 388.053 161.748 388.791 161.859 389.683L160.471 389.683ZM158.224 392.144C157.751 392.144 157.305 392.243 156.886 392.441C156.468 392.629 156.126 392.921 155.862 393.317C155.609 393.702 155.482 394.176 155.482 394.738C155.482 395.575 155.724 396.257 156.209 396.786C156.693 397.304 157.387 397.562 158.29 397.562C159.061 397.562 159.672 397.326 160.124 396.852C160.587 396.368 160.818 395.718 160.818 394.903C160.818 394.044 160.598 393.372 160.157 392.887C159.717 392.392 159.072 392.144 158.224 392.144ZM165.026 398.884C164.74 398.884 164.498 398.785 164.3 398.587C164.101 398.388 164.002 398.146 164.002 397.86C164.002 397.573 164.101 397.331 164.3 397.133C164.498 396.935 164.74 396.836 165.026 396.836C165.302 396.836 165.533 396.935 165.72 397.133C165.918 397.331 166.018 397.573 166.018 397.86C166.018 398.146 165.918 398.388 165.72 398.587C165.533 398.785 165.302 398.884 165.026 398.884ZM165.026 391.814C164.74 391.814 164.498 391.715 164.3 391.516C164.101 391.318 164.002 391.076 164.002 390.79C164.002 390.503 164.101 390.261 164.3 390.063C164.498 389.864 164.74 389.765 165.026 389.765C165.302 389.765 165.533 389.864 165.72 390.063C165.918 390.261 166.018 390.503 166.018 390.79C166.018 391.076 165.918 391.318 165.72 391.516C165.533 391.715 165.302 391.814 165.026 391.814ZM167.816 392.689C167.816 390.795 168.125 389.319 168.741 388.262C169.358 387.194 170.437 386.66 171.979 386.66C173.51 386.66 174.584 387.194 175.201 388.262C175.817 389.319 176.126 390.795 176.126 392.689C176.126 394.617 175.817 396.114 175.201 397.183C174.584 398.251 173.51 398.785 171.979 398.785C170.437 398.785 169.358 398.251 168.741 397.183C168.125 396.114 167.816 394.617 167.816 392.689ZM174.639 392.689C174.639 391.731 174.573 390.922 174.441 390.261C174.319 389.589 174.061 389.049 173.664 388.642C173.279 388.235 172.717 388.031 171.979 388.031C171.23 388.031 170.658 388.235 170.261 388.642C169.876 389.049 169.617 389.589 169.485 390.261C169.364 390.922 169.303 391.731 169.303 392.689C169.303 393.68 169.364 394.512 169.485 395.184C169.617 395.855 169.876 396.395 170.261 396.803C170.658 397.21 171.23 397.414 171.979 397.414C172.717 397.414 173.279 397.21 173.664 396.803C174.061 396.395 174.319 395.855 174.441 395.184C174.573 394.512 174.639 393.68 174.639 392.689ZM178.189 392.689C178.189 390.795 178.498 389.319 179.114 388.262C179.731 387.194 180.81 386.66 182.352 386.66C183.883 386.66 184.957 387.194 185.574 388.262C186.19 389.319 186.499 390.795 186.499 392.689C186.499 394.617 186.19 396.114 185.574 397.183C184.957 398.251 183.883 398.785 182.352 398.785C180.81 398.785 179.731 398.251 179.114 397.183C178.498 396.114 178.189 394.617 178.189 392.689ZM185.012 392.689C185.012 391.731 184.946 390.922 184.814 390.261C184.692 389.589 184.434 389.049 184.037 388.642C183.652 388.235 183.09 388.031 182.352 388.031C181.603 388.031 181.031 388.235 180.634 388.642C180.249 389.049 179.99 389.589 179.858 390.261C179.737 390.922 179.676 391.731 179.676 392.689C179.676 393.68 179.737 394.512 179.858 395.184C179.99 395.855 180.249 396.395 180.634 396.803C181.031 397.21 181.603 397.414 182.352 397.414C183.09 397.414 183.652 397.21 184.037 396.803C184.434 396.395 184.692 395.855 184.814 395.184C184.946 394.512 185.012 393.68 185.012 392.689Z" fill="white" fill-opacity="0.87"/>
<rect x="131.099" y="371.886" width="73.7974" height="42.7974" rx="9.91162" stroke="url(#paint5_linear_4495_34)" stroke-width="2.20258"/>
<path d="M111.425 289.416L105.117 278.586L100.937 278.586L100.937 289.416L97.4787 289.416L97.4787 262.93L106.029 262.93C108.03 262.93 109.715 263.272 111.083 263.956C112.476 264.64 113.515 265.564 114.199 266.73C114.883 267.895 115.225 269.225 115.225 270.72C115.225 272.544 114.693 274.152 113.629 275.546C112.59 276.939 111.019 277.864 108.917 278.32L115.567 289.416L111.425 289.416ZM100.937 275.812L106.029 275.812C107.903 275.812 109.309 275.356 110.247 274.444C111.184 273.506 111.653 272.265 111.653 270.72C111.653 269.149 111.184 267.933 110.247 267.072C109.335 266.21 107.929 265.78 106.029 265.78L100.937 265.78L100.937 275.812ZM129.68 289.758C127.729 289.758 125.956 289.314 124.36 288.428C122.789 287.541 121.548 286.287 120.636 284.666C119.749 283.019 119.306 281.119 119.306 278.966C119.306 276.838 119.762 274.963 120.674 273.342C121.611 271.695 122.878 270.441 124.474 269.58C126.07 268.693 127.856 268.25 129.832 268.25C131.808 268.25 133.594 268.693 135.19 269.58C136.786 270.441 138.04 271.682 138.952 273.304C139.889 274.925 140.358 276.812 140.358 278.966C140.358 281.119 139.877 283.019 138.914 284.666C137.977 286.287 136.697 287.541 135.076 288.428C133.455 289.314 131.656 289.758 129.68 289.758ZM129.68 286.718C130.921 286.718 132.087 286.426 133.176 285.844C134.265 285.261 135.139 284.387 135.798 283.222C136.482 282.056 136.824 280.638 136.824 278.966C136.824 277.294 136.495 275.875 135.836 274.71C135.177 273.544 134.316 272.683 133.252 272.126C132.188 271.543 131.035 271.252 129.794 271.252C128.527 271.252 127.362 271.543 126.298 272.126C125.259 272.683 124.423 273.544 123.79 274.71C123.157 275.875 122.84 277.294 122.84 278.966C122.84 280.663 123.144 282.094 123.752 283.26C124.385 284.425 125.221 285.299 126.26 285.882C127.299 286.439 128.439 286.718 129.68 286.718ZM163.373 268.592L163.373 289.416L159.915 289.416L159.915 286.338C159.256 287.402 158.331 288.238 157.141 288.846C155.975 289.428 154.683 289.72 153.265 289.72C151.643 289.72 150.187 289.39 148.895 288.732C147.603 288.048 146.577 287.034 145.817 285.692C145.082 284.349 144.715 282.715 144.715 280.79L144.715 268.592L148.135 268.592L148.135 280.334C148.135 282.386 148.654 283.969 149.693 285.084C150.731 286.173 152.15 286.718 153.949 286.718C155.798 286.718 157.255 286.148 158.319 285.008C159.383 283.868 159.915 282.208 159.915 280.03L159.915 268.592L163.373 268.592ZM179.357 268.212C181.89 268.212 183.942 268.984 185.513 270.53C187.084 272.05 187.869 274.254 187.869 277.142L187.869 289.416L184.449 289.416L184.449 277.636C184.449 275.558 183.93 273.975 182.891 272.886C181.852 271.771 180.434 271.214 178.635 271.214C176.811 271.214 175.354 271.784 174.265 272.924C173.201 274.064 172.669 275.723 172.669 277.902L172.669 289.416L169.211 289.416L169.211 268.592L172.669 268.592L172.669 271.556C173.353 270.492 174.278 269.668 175.443 269.086C176.634 268.503 177.938 268.212 179.357 268.212ZM192.226 278.928C192.226 276.8 192.656 274.938 193.518 273.342C194.379 271.72 195.557 270.466 197.052 269.58C198.572 268.693 200.269 268.25 202.144 268.25C203.765 268.25 205.272 268.63 206.666 269.39C208.059 270.124 209.123 271.1 209.858 272.316L209.858 261.296L213.354 261.296L213.354 289.416L209.858 289.416L209.858 285.502C209.174 286.743 208.16 287.769 206.818 288.58C205.475 289.365 203.904 289.758 202.106 289.758C200.256 289.758 198.572 289.302 197.052 288.39C195.557 287.478 194.379 286.198 193.518 284.552C192.656 282.905 192.226 281.03 192.226 278.928ZM209.858 278.966C209.858 277.395 209.541 276.027 208.908 274.862C208.274 273.696 207.413 272.81 206.324 272.202C205.26 271.568 204.082 271.252 202.79 271.252C201.498 271.252 200.32 271.556 199.256 272.164C198.192 272.772 197.343 273.658 196.71 274.824C196.076 275.989 195.76 277.357 195.76 278.928C195.76 280.524 196.076 281.917 196.71 283.108C197.343 284.273 198.192 285.172 199.256 285.806C200.32 286.414 201.498 286.718 202.79 286.718C204.082 286.718 205.26 286.414 206.324 285.806C207.413 285.172 208.274 284.273 208.908 283.108C209.541 281.917 209.858 280.536 209.858 278.966ZM228.34 286.642C231.558 284.058 234.078 281.942 235.902 280.296C237.726 278.624 239.259 276.888 240.5 275.09C241.767 273.266 242.4 271.48 242.4 269.732C242.4 268.085 241.995 266.793 241.184 265.856C240.399 264.893 239.12 264.412 237.346 264.412C235.624 264.412 234.281 264.956 233.318 266.046C232.381 267.11 231.874 268.541 231.798 270.34L228.454 270.34C228.556 267.502 229.417 265.311 231.038 263.766C232.66 262.22 234.75 261.448 237.308 261.448C239.918 261.448 241.982 262.17 243.502 263.614C245.048 265.058 245.82 267.046 245.82 269.58C245.82 271.682 245.187 273.734 243.92 275.736C242.679 277.712 241.26 279.46 239.664 280.98C238.068 282.474 236.029 284.222 233.546 286.224L246.618 286.224L246.618 289.112L228.34 289.112L228.34 286.642Z" fill="white" fill-opacity="0.87"/>
<defs>
<filter id="filter0_d_4495_34" x="0.518303" y="0.510979" width="307.1" height="399.995" filterUnits="userSpaceOnUse" color-interpolation-filters="sRGB">
<feFlood flood-opacity="0" result="BackgroundImageFix"/>
<feColorMatrix in="SourceAlpha" type="matrix" values="0 0 0 0 0 0 0 0 0 0 0 0 0 0 0 0 0 0 127 0" result="hardAlpha"/>
<feOffset dy="16.9927"/>
<feGaussianBlur stdDeviation="21.2408"/>
<feComposite in2="hardAlpha" operator="out"/>
<feColorMatrix type="matrix" values="0 0 0 0 0.0705882 0 0 0 0 0.0235294 0 0 0 0 0.262745 0 0 0 1 0"/>
<feBlend mode="normal" in2="BackgroundImageFix" result="effect1_dropShadow_4495_34"/>
<feBlend mode="normal" in="SourceGraphic" in2="effect1_dropShadow_4495_34" result="shape"/>
</filter>
<filter id="filter1_d_4495_34" x="73.5163" y="345.296" width="174.963" height="136.963" filterUnits="userSpaceOnUse" color-interpolation-filters="sRGB">
<feFlood flood-opacity="0" result="BackgroundImageFix"/>
<feColorMatrix in="SourceAlpha" type="matrix" values="0 0 0 0 0 0 0 0 0 0 0 0 0 0 0 0 0 0 127 0" result="hardAlpha"/>
<feOffset dy="16.9927"/>
<feGaussianBlur stdDeviation="21.2408"/>
<feComposite in2="hardAlpha" operator="out"/>
<feColorMatrix type="matrix" values="0 0 0 0 0.0705882 0 0 0 0 0.0235294 0 0 0 0 0.262745 0 0 0 1 0"/>
<feBlend mode="normal" in2="BackgroundImageFix" result="effect1_dropShadow_4495_34"/>
<feBlend mode="normal" in="SourceGraphic" in2="effect1_dropShadow_4495_34" result="shape"/>
</filter>
<linearGradient id="paint0_linear_4495_34" x1="246.04" y1="37.7689" x2="257.32" y2="302.249" gradientUnits="userSpaceOnUse">
<stop offset="0.0602708" stop-color="#3F238A"/>
<stop offset="0.126222" stop-color="#2B1564"/>
<stop offset="0.211728" stop-color="#2D146F"/>
<stop offset="0.646899" stop-color="#2B1C56"/>
<stop offset="0.913672" stop-color="#33216C"/>
<stop offset="1" stop-color="#251652"/>
</linearGradient>
<linearGradient id="paint1_linear_4495_34" x1="98.1807" y1="26.2136" x2="355.034" y2="198.52" gradientUnits="userSpaceOnUse">
<stop stop-color="#2E1371"/>
<stop offset="1" stop-color="#21232F"/>
</linearGradient>
<linearGradient id="paint2_linear_4495_34" x1="105.491" y1="-6.25846" x2="250.789" y2="89.1433" gradientUnits="userSpaceOnUse">
<stop stop-color="#09FBD3"/>
<stop offset="1" stop-color="#09FBD3" stop-opacity="0"/>
</linearGradient>
<linearGradient id="paint3_linear_4495_34" x1="185.563" y1="374.057" x2="187.458" y2="412.652" gradientUnits="userSpaceOnUse">
<stop offset="0.0602708" stop-color="#3F238A"/>
<stop offset="0.126222" stop-color="#2B1564"/>
<stop offset="0.211728" stop-color="#2D146F"/>
<stop offset="0.646899" stop-color="#2B1C56"/>
<stop offset="0.913672" stop-color="#33216C"/>
<stop offset="1" stop-color="#251652"/>
</linearGradient>
<linearGradient id="paint4_linear_4495_34" x1="137.598" y1="370.785" x2="172.496" y2="428.361" gradientUnits="userSpaceOnUse">
<stop stop-color="#2E1371"/>
<stop offset="1" stop-color="#202442"/>
</linearGradient>
<linearGradient id="paint5_linear_4495_34" x1="140.638" y1="365.722" x2="158.449" y2="398.477" gradientUnits="userSpaceOnUse">
<stop stop-color="#09FBD3"/>
<stop offset="1" stop-color="#09FBD3" stop-opacity="0"/>
</linearGradient>
</defs>
</svg>
