<svg width="308" height="468" viewBox="0 0 308 468" fill="none" xmlns="http://www.w3.org/2000/svg">
<g filter="url(#filter0_d_4495_32)">
<path d="M43 42.5194C43 33.396 50.396 26 59.5194 26L254.013 26C260.096 26 265.026 30.9306 265.026 37.0129L265.026 324.356C265.026 333.479 257.63 340.875 248.507 340.875L59.5194 340.875C50.396 340.875 43 333.479 43 324.356L43 42.5194Z" fill="url(#paint0_linear_4495_32)"/>
</g>
<rect x="79.8806" y="27.3125" width="180.47" height="286.295" rx="9.91162" fill="url(#paint1_linear_4495_32)" stroke="url(#paint2_linear_4495_32)" stroke-width="2.20258"/>
<path d="M145.542 92.0311L145.542 95.7311L130.392 95.7311L130.392 107.481L142.692 107.481L142.692 111.181L130.392 111.181L130.392 126.881L125.842 126.881L125.842 92.0311L145.542 92.0311ZM155.588 103.931C156.388 102.364 157.521 101.148 158.988 100.281C160.488 99.4144 162.304 98.9811 164.438 98.9811L164.438 103.681L163.238 103.681C158.138 103.681 155.588 106.448 155.588 111.981L155.588 126.881L151.038 126.881L151.038 99.4811L155.588 99.4811L155.588 103.931ZM172.04 95.0311C171.173 95.0311 170.44 94.7311 169.84 94.1311C169.24 93.5311 168.94 92.7978 168.94 91.9311C168.94 91.0644 169.24 90.3311 169.84 89.7311C170.44 89.1311 171.173 88.8311 172.04 88.8311C172.873 88.8311 173.573 89.1311 174.14 89.7311C174.74 90.3311 175.04 91.0644 175.04 91.9311C175.04 92.7978 174.74 93.5311 174.14 94.1311C173.573 94.7311 172.873 95.0311 172.04 95.0311ZM174.24 99.4811L174.24 126.881L169.69 126.881L169.69 99.4811L174.24 99.4811Z" fill="white" fill-opacity="0.87"/>
<path d="M107.612 223.921C109.426 222.481 110.252 221.814 110.092 221.921C115.319 217.601 119.426 214.054 122.412 211.281C125.452 208.508 128.012 205.601 130.092 202.561C132.172 199.521 133.212 196.561 133.212 193.681C133.212 191.494 132.706 189.788 131.692 188.561C130.679 187.334 129.159 186.721 127.132 186.721C125.106 186.721 123.506 187.494 122.332 189.041C121.212 190.534 120.652 192.668 120.652 195.441L107.452 195.441C107.559 190.908 108.519 187.121 110.332 184.081C112.199 181.041 114.626 178.801 117.612 177.361C120.652 175.921 124.012 175.201 127.692 175.201C134.039 175.201 138.812 176.828 142.012 180.081C145.266 183.334 146.892 187.574 146.892 192.801C146.892 198.508 144.946 203.814 141.052 208.721C137.159 213.574 132.199 218.321 126.172 222.961L147.772 222.961L147.772 234.081L107.612 234.081L107.612 223.921ZM153.315 223.921C155.129 222.481 155.955 221.814 155.795 221.921C161.022 217.601 165.129 214.054 168.115 211.281C171.155 208.508 173.715 205.601 175.795 202.561C177.875 199.521 178.915 196.561 178.915 193.681C178.915 191.494 178.409 189.788 177.395 188.561C176.382 187.334 174.862 186.721 172.835 186.721C170.809 186.721 169.209 187.494 168.035 189.041C166.915 190.534 166.355 192.668 166.355 195.441L153.155 195.441C153.262 190.908 154.222 187.121 156.035 184.081C157.902 181.041 160.329 178.801 163.315 177.361C166.355 175.921 169.715 175.201 173.395 175.201C179.742 175.201 184.515 176.828 187.715 180.081C190.969 183.334 192.595 187.574 192.595 192.801C192.595 198.508 190.649 203.814 186.755 208.721C182.862 213.574 177.902 218.321 171.875 222.961L193.475 222.961L193.475 234.081L153.315 234.081L153.315 223.921Z" fill="white" fill-opacity="0.87"/>
<g filter="url(#filter1_d_4495_32)">
<path d="M102.43 371.741C102.43 363.294 109.277 356.447 117.723 356.447L181.417 356.447C187.499 356.447 192.43 361.378 192.43 367.46L192.43 391.455C192.43 400.839 184.822 408.447 175.437 408.447L116.746 408.447C108.84 408.447 102.43 402.037 102.43 394.13L102.43 371.741Z" fill="url(#paint3_linear_4495_32)"/>
</g>
<rect x="117.531" y="357.549" width="73.7974" height="42.7974" rx="9.91162" fill="url(#paint4_linear_4495_32)"/>
<path d="M135.557 373.875L135.557 372.504L138.663 372.504L138.663 384.447L137.143 384.447L137.143 373.875L135.557 373.875ZM148.596 373.677L144.004 384.447L142.484 384.447L147.143 373.825L140.766 373.825L140.766 372.537L148.596 372.537L148.596 373.677ZM150.99 384.546C150.704 384.546 150.461 384.447 150.263 384.249C150.065 384.051 149.966 383.809 149.966 383.522C149.966 383.236 150.065 382.994 150.263 382.795C150.461 382.597 150.704 382.498 150.99 382.498C151.265 382.498 151.497 382.597 151.684 382.795C151.882 382.994 151.981 383.236 151.981 383.522C151.981 383.809 151.882 384.051 151.684 384.249C151.497 384.447 151.265 384.546 150.99 384.546ZM150.99 377.476C150.704 377.476 150.461 377.377 150.263 377.179C150.065 376.981 149.966 376.738 149.966 376.452C149.966 376.166 150.065 375.923 150.263 375.725C150.461 375.527 150.704 375.428 150.99 375.428C151.265 375.428 151.497 375.527 151.684 375.725C151.882 375.923 151.981 376.166 151.981 376.452C151.981 376.738 151.882 376.981 151.684 377.179C151.497 377.377 151.265 377.476 150.99 377.476ZM153.78 378.352C153.78 376.457 154.088 374.982 154.705 373.924C155.322 372.856 156.401 372.322 157.943 372.322C159.474 372.322 160.547 372.856 161.164 373.924C161.781 374.982 162.089 376.457 162.089 378.352C162.089 380.279 161.781 381.777 161.164 382.845C160.547 383.913 159.474 384.447 157.943 384.447C156.401 384.447 155.322 383.913 154.705 382.845C154.088 381.777 153.78 380.279 153.78 378.352ZM160.602 378.352C160.602 377.393 160.536 376.584 160.404 375.923C160.283 375.251 160.024 374.712 159.628 374.304C159.242 373.897 158.681 373.693 157.943 373.693C157.194 373.693 156.621 373.897 156.225 374.304C155.839 374.712 155.581 375.251 155.448 375.923C155.327 376.584 155.267 377.393 155.267 378.352C155.267 379.343 155.327 380.174 155.448 380.846C155.581 381.518 155.839 382.057 156.225 382.465C156.621 382.872 157.194 383.076 157.943 383.076C158.681 383.076 159.242 382.872 159.628 382.465C160.024 382.057 160.283 381.518 160.404 380.846C160.536 380.174 160.602 379.343 160.602 378.352ZM164.153 378.352C164.153 376.457 164.461 374.982 165.078 373.924C165.695 372.856 166.774 372.322 168.316 372.322C169.847 372.322 170.92 372.856 171.537 373.924C172.154 374.982 172.462 376.457 172.462 378.352C172.462 380.279 172.154 381.777 171.537 382.845C170.92 383.913 169.847 384.447 168.316 384.447C166.774 384.447 165.695 383.913 165.078 382.845C164.461 381.777 164.153 380.279 164.153 378.352ZM170.975 378.352C170.975 377.393 170.909 376.584 170.777 375.923C170.656 375.251 170.397 374.712 170.001 374.304C169.615 373.897 169.054 373.693 168.316 373.693C167.567 373.693 166.994 373.897 166.598 374.304C166.212 374.712 165.954 375.251 165.821 375.923C165.7 376.584 165.64 377.393 165.64 378.352C165.64 379.343 165.7 380.174 165.821 380.846C165.954 381.518 166.212 382.057 166.598 382.465C166.994 382.872 167.567 383.076 168.316 383.076C169.054 383.076 169.615 382.872 170.001 382.465C170.397 382.057 170.656 381.518 170.777 380.846C170.909 380.174 170.975 379.343 170.975 378.352Z" fill="white" fill-opacity="0.87"/>
<rect x="117.531" y="357.549" width="73.7974" height="42.7974" rx="9.91162" stroke="url(#paint5_linear_4495_32)" stroke-width="2.20258"/>
<path d="M103.444 298.427L97.1363 287.597L92.9563 287.597L92.9563 298.427L89.4983 298.427L89.4983 271.941L98.0483 271.941C100.05 271.941 101.734 272.283 103.102 272.967C104.496 273.651 105.534 274.576 106.218 275.741C106.902 276.907 107.244 278.237 107.244 279.731C107.244 281.555 106.712 283.164 105.648 284.557C104.61 285.951 103.039 286.875 100.936 287.331L107.586 298.427L103.444 298.427ZM92.9563 284.823L98.0483 284.823C99.9229 284.823 101.329 284.367 102.266 283.455C103.204 282.518 103.672 281.277 103.672 279.731C103.672 278.161 103.204 276.945 102.266 276.083C101.354 275.222 99.9483 274.791 98.0483 274.791L92.9563 274.791L92.9563 284.823ZM121.699 298.769C119.749 298.769 117.975 298.326 116.379 297.439C114.809 296.553 113.567 295.299 112.655 293.677C111.769 292.031 111.325 290.131 111.325 287.977C111.325 285.849 111.781 283.975 112.693 282.353C113.631 280.707 114.897 279.453 116.493 278.591C118.089 277.705 119.875 277.261 121.851 277.261C123.827 277.261 125.613 277.705 127.209 278.591C128.805 279.453 130.059 280.694 130.971 282.315C131.909 283.937 132.377 285.824 132.377 287.977C132.377 290.131 131.896 292.031 130.933 293.677C129.996 295.299 128.717 296.553 127.095 297.439C125.474 298.326 123.675 298.769 121.699 298.769ZM121.699 295.729C122.941 295.729 124.106 295.438 125.195 294.855C126.285 294.273 127.159 293.399 127.817 292.233C128.501 291.068 128.843 289.649 128.843 287.977C128.843 286.305 128.514 284.887 127.855 283.721C127.197 282.556 126.335 281.695 125.271 281.137C124.207 280.555 123.055 280.263 121.813 280.263C120.547 280.263 119.381 280.555 118.317 281.137C117.279 281.695 116.443 282.556 115.809 283.721C115.176 284.887 114.859 286.305 114.859 287.977C114.859 289.675 115.163 291.106 115.771 292.271C116.405 293.437 117.241 294.311 118.279 294.893C119.318 295.451 120.458 295.729 121.699 295.729ZM155.392 277.603L155.392 298.427L151.934 298.427L151.934 295.349C151.275 296.413 150.351 297.249 149.16 297.857C147.995 298.44 146.703 298.731 145.284 298.731C143.663 298.731 142.206 298.402 140.914 297.743C139.622 297.059 138.596 296.046 137.836 294.703C137.101 293.361 136.734 291.727 136.734 289.801L136.734 277.603L140.154 277.603L140.154 289.345C140.154 291.397 140.673 292.981 141.712 294.095C142.751 295.185 144.169 295.729 145.968 295.729C147.817 295.729 149.274 295.159 150.338 294.019C151.402 292.879 151.934 291.22 151.934 289.041L151.934 277.603L155.392 277.603ZM171.377 277.223C173.91 277.223 175.962 277.996 177.533 279.541C179.103 281.061 179.889 283.265 179.889 286.153L179.889 298.427L176.469 298.427L176.469 286.647C176.469 284.57 175.949 282.987 174.911 281.897C173.872 280.783 172.453 280.225 170.655 280.225C168.831 280.225 167.374 280.795 166.285 281.935C165.221 283.075 164.689 284.735 164.689 286.913L164.689 298.427L161.231 298.427L161.231 277.603L164.689 277.603L164.689 280.567C165.373 279.503 166.297 278.68 167.463 278.097C168.653 277.515 169.958 277.223 171.377 277.223ZM184.245 287.939C184.245 285.811 184.676 283.949 185.537 282.353C186.399 280.732 187.577 279.478 189.071 278.591C190.591 277.705 192.289 277.261 194.163 277.261C195.785 277.261 197.292 277.641 198.685 278.401C200.079 279.136 201.143 280.111 201.877 281.327L201.877 270.307L205.373 270.307L205.373 298.427L201.877 298.427L201.877 294.513C201.193 295.755 200.18 296.781 198.837 297.591C197.495 298.377 195.924 298.769 194.125 298.769C192.276 298.769 190.591 298.313 189.071 297.401C187.577 296.489 186.399 295.21 185.537 293.563C184.676 291.917 184.245 290.042 184.245 287.939ZM201.877 287.977C201.877 286.407 201.561 285.039 200.927 283.873C200.294 282.708 199.433 281.821 198.343 281.213C197.279 280.58 196.101 280.263 194.809 280.263C193.517 280.263 192.339 280.567 191.275 281.175C190.211 281.783 189.363 282.67 188.729 283.835C188.096 285.001 187.779 286.369 187.779 287.939C187.779 289.535 188.096 290.929 188.729 292.119C189.363 293.285 190.211 294.184 191.275 294.817C192.339 295.425 193.517 295.729 194.809 295.729C196.101 295.729 197.279 295.425 198.343 294.817C199.433 294.184 200.294 293.285 200.927 292.119C201.561 290.929 201.877 289.548 201.877 287.977ZM219.866 274.107L219.866 270.953L227.01 270.953L227.01 298.427L223.514 298.427L223.514 274.107L219.866 274.107Z" fill="white" fill-opacity="0.87"/>
<defs>
<filter id="filter0_d_4495_32" x="0.518303" y="0.510979" width="306.989" height="399.838" filterUnits="userSpaceOnUse" color-interpolation-filters="sRGB">
<feFlood flood-opacity="0" result="BackgroundImageFix"/>
<feColorMatrix in="SourceAlpha" type="matrix" values="0 0 0 0 0 0 0 0 0 0 0 0 0 0 0 0 0 0 127 0" result="hardAlpha"/>
<feOffset dy="16.9927"/>
<feGaussianBlur stdDeviation="21.2408"/>
<feComposite in2="hardAlpha" operator="out"/>
<feColorMatrix type="matrix" values="0 0 0 0 0.0705882 0 0 0 0 0.0235294 0 0 0 0 0.262745 0 0 0 1 0"/>
<feBlend mode="normal" in2="BackgroundImageFix" result="effect1_dropShadow_4495_32"/>
<feBlend mode="normal" in="SourceGraphic" in2="effect1_dropShadow_4495_32" result="shape"/>
</filter>
<filter id="filter1_d_4495_32" x="59.948" y="330.958" width="174.963" height="136.963" filterUnits="userSpaceOnUse" color-interpolation-filters="sRGB">
<feFlood flood-opacity="0" result="BackgroundImageFix"/>
<feColorMatrix in="SourceAlpha" type="matrix" values="0 0 0 0 0 0 0 0 0 0 0 0 0 0 0 0 0 0 127 0" result="hardAlpha"/>
<feOffset dy="16.9927"/>
<feGaussianBlur stdDeviation="21.2408"/>
<feComposite in2="hardAlpha" operator="out"/>
<feColorMatrix type="matrix" values="0 0 0 0 0.0705882 0 0 0 0 0.0235294 0 0 0 0 0.262745 0 0 0 1 0"/>
<feBlend mode="normal" in2="BackgroundImageFix" result="effect1_dropShadow_4495_32"/>
<feBlend mode="normal" in="SourceGraphic" in2="effect1_dropShadow_4495_32" result="shape"/>
</filter>
<linearGradient id="paint0_linear_4495_32" x1="245.94" y1="37.763" x2="257.213" y2="302.112" gradientUnits="userSpaceOnUse">
<stop offset="0.0602708" stop-color="#3F238A"/>
<stop offset="0.126222" stop-color="#2B1564"/>
<stop offset="0.211728" stop-color="#2D146F"/>
<stop offset="0.646899" stop-color="#2B1C56"/>
<stop offset="0.913672" stop-color="#33216C"/>
<stop offset="1" stop-color="#251652"/>
</linearGradient>
<linearGradient id="paint1_linear_4495_32" x1="97.0466" y1="26.2112" x2="353.772" y2="198.432" gradientUnits="userSpaceOnUse">
<stop stop-color="#2E1371"/>
<stop offset="1" stop-color="#21232F"/>
</linearGradient>
<linearGradient id="paint2_linear_4495_32" x1="104.354" y1="-6.24478" x2="244.135" y2="99.7962" gradientUnits="userSpaceOnUse">
<stop stop-color="#09FBD3"/>
<stop offset="1" stop-color="#09FBD3" stop-opacity="0"/>
</linearGradient>
<linearGradient id="paint3_linear_4495_32" x1="171.995" y1="359.719" x2="173.89" y2="398.314" gradientUnits="userSpaceOnUse">
<stop offset="0.0602708" stop-color="#3F238A"/>
<stop offset="0.126222" stop-color="#2B1564"/>
<stop offset="0.211728" stop-color="#2D146F"/>
<stop offset="0.646899" stop-color="#2B1C56"/>
<stop offset="0.913672" stop-color="#33216C"/>
<stop offset="1" stop-color="#251652"/>
</linearGradient>
<linearGradient id="paint4_linear_4495_32" x1="124.03" y1="356.447" x2="158.928" y2="414.024" gradientUnits="userSpaceOnUse">
<stop stop-color="#2E1371"/>
<stop offset="1" stop-color="#202442"/>
</linearGradient>
<linearGradient id="paint5_linear_4495_32" x1="127.07" y1="351.385" x2="144.881" y2="384.14" gradientUnits="userSpaceOnUse">
<stop stop-color="#09FBD3"/>
<stop offset="1" stop-color="#09FBD3" stop-opacity="0"/>
</linearGradient>
</defs>
</svg>
