<svg width="308" height="470" viewBox="0 0 308 470" fill="none" xmlns="http://www.w3.org/2000/svg">
<g filter="url(#filter0_d_4402_24)">
<path d="M43.4297 42.0919C43.4297 32.9685 50.8257 25.5725 59.9491 25.5725L254.443 25.5725C260.525 25.5725 265.456 30.5032 265.456 36.5854L265.456 323.928C265.456 333.052 258.06 340.448 248.937 340.448L59.949 340.448C50.8256 340.448 43.4297 333.052 43.4297 323.928L43.4297 42.0919Z" fill="url(#paint0_linear_4402_24)"/>
</g>
<rect x="80.3103" y="26.885" width="180.47" height="286.295" rx="9.91162" fill="url(#paint1_linear_4402_24)" stroke="url(#paint2_linear_4402_24)" stroke-width="2.20258"/>
<path d="M145.972 91.6036L145.972 95.3036L130.822 95.3036L130.822 107.054L143.122 107.054L143.122 110.754L130.822 110.754L130.822 126.454L126.272 126.454L126.272 91.6036L145.972 91.6036ZM156.017 103.504C156.817 101.937 157.951 100.72 159.417 99.8536C160.917 98.9869 162.734 98.5536 164.867 98.5536L164.867 103.254L163.667 103.254C158.567 103.254 156.017 106.02 156.017 111.554L156.017 126.454L151.467 126.454L151.467 99.0536L156.017 99.0536L156.017 103.504ZM172.47 94.6036C171.603 94.6036 170.87 94.3036 170.27 93.7036C169.67 93.1036 169.37 92.3703 169.37 91.5036C169.37 90.6369 169.67 89.9036 170.27 89.3036C170.87 88.7036 171.603 88.4036 172.47 88.4036C173.303 88.4036 174.003 88.7036 174.57 89.3036C175.17 89.9036 175.47 90.6369 175.47 91.5036C175.47 92.3703 175.17 93.1036 174.57 93.7036C174.003 94.3036 173.303 94.6036 172.47 94.6036ZM174.67 99.0536L174.67 126.454L170.12 126.454L170.12 99.0536L174.67 99.0536Z" fill="white" fill-opacity="0.87"/>
<path d="M108.042 223.494C109.855 222.054 110.682 221.387 110.522 221.494C115.749 217.174 119.855 213.627 122.842 210.854C125.882 208.08 128.442 205.174 130.522 202.134C132.602 199.094 133.642 196.134 133.642 193.254C133.642 191.067 133.135 189.36 132.122 188.134C131.109 186.907 129.589 186.294 127.562 186.294C125.535 186.294 123.935 187.067 122.762 188.614C121.642 190.107 121.082 192.24 121.082 195.014L107.882 195.014C107.989 190.48 108.949 186.694 110.762 183.654C112.629 180.614 115.055 178.374 118.042 176.934C121.082 175.494 124.442 174.774 128.122 174.774C134.469 174.774 139.242 176.4 142.442 179.654C145.695 182.907 147.322 187.147 147.322 192.374C147.322 198.08 145.375 203.387 141.482 208.294C137.589 213.147 132.629 217.894 126.602 222.534L148.202 222.534L148.202 233.654L108.042 233.654L108.042 223.494ZM153.745 223.494C155.558 222.054 156.385 221.387 156.225 221.494C161.452 217.174 165.558 213.627 168.545 210.854C171.585 208.08 174.145 205.174 176.225 202.134C178.305 199.094 179.345 196.134 179.345 193.254C179.345 191.067 178.838 189.36 177.825 188.134C176.812 186.907 175.292 186.294 173.265 186.294C171.238 186.294 169.638 187.067 168.465 188.614C167.345 190.107 166.785 192.24 166.785 195.014L153.585 195.014C153.692 190.48 154.652 186.694 156.465 183.654C158.332 180.614 160.758 178.374 163.745 176.934C166.785 175.494 170.145 174.774 173.825 174.774C180.172 174.774 184.945 176.4 188.145 179.654C191.398 182.907 193.025 187.147 193.025 192.374C193.025 198.08 191.078 203.387 187.185 208.294C183.292 213.147 178.332 217.894 172.305 222.534L193.905 222.534L193.905 233.654L153.745 233.654L153.745 223.494Z" fill="white" fill-opacity="0.87"/>
<g filter="url(#filter1_d_4402_24)">
<path d="M105.43 373.74C105.43 365.294 112.277 358.447 120.723 358.447L184.417 358.447C190.499 358.447 195.43 363.378 195.43 369.46L195.43 393.454C195.43 402.839 187.822 410.447 178.437 410.447L119.746 410.447C111.84 410.447 105.43 404.037 105.43 396.13L105.43 373.74Z" fill="url(#paint3_linear_4402_24)"/>
</g>
<rect x="120.531" y="359.548" width="73.7974" height="42.7974" rx="9.91162" fill="url(#paint4_linear_4402_24)"/>
<path d="M137.557 375.875L137.557 374.504L140.663 374.504L140.663 386.447L139.143 386.447L139.143 375.875L137.557 375.875ZM149.903 377.345C149.66 376.122 148.906 375.511 147.639 375.511C146.659 375.511 145.927 375.891 145.442 376.651C144.958 377.4 144.721 378.639 144.732 380.368C144.985 379.795 145.404 379.349 145.987 379.03C146.582 378.699 147.243 378.534 147.97 378.534C149.104 378.534 150.007 378.887 150.679 379.591C151.362 380.296 151.703 381.271 151.703 382.515C151.703 383.264 151.554 383.936 151.257 384.531C150.971 385.125 150.53 385.599 149.936 385.951C149.352 386.304 148.642 386.48 147.805 386.48C146.67 386.48 145.784 386.227 145.145 385.72C144.506 385.214 144.06 384.514 143.807 383.622C143.554 382.73 143.427 381.629 143.427 380.318C143.427 376.277 144.837 374.256 147.656 374.256C148.735 374.256 149.583 374.548 150.2 375.131C150.817 375.715 151.18 376.453 151.29 377.345L149.903 377.345ZM147.656 379.806C147.182 379.806 146.736 379.905 146.318 380.104C145.899 380.291 145.558 380.583 145.294 380.979C145.04 381.365 144.914 381.838 144.914 382.4C144.914 383.237 145.156 383.92 145.641 384.448C146.125 384.966 146.819 385.225 147.722 385.225C148.493 385.225 149.104 384.988 149.556 384.514C150.018 384.03 150.249 383.38 150.249 382.565C150.249 381.706 150.029 381.034 149.589 380.55C149.148 380.054 148.504 379.806 147.656 379.806ZM154.458 386.546C154.172 386.546 153.929 386.447 153.731 386.249C153.533 386.051 153.434 385.808 153.434 385.522C153.434 385.236 153.533 384.993 153.731 384.795C153.929 384.597 154.172 384.498 154.458 384.498C154.733 384.498 154.965 384.597 155.152 384.795C155.35 384.993 155.449 385.236 155.449 385.522C155.449 385.808 155.35 386.051 155.152 386.249C154.965 386.447 154.733 386.546 154.458 386.546ZM154.458 379.476C154.172 379.476 153.929 379.377 153.731 379.178C153.533 378.98 153.434 378.738 153.434 378.452C153.434 378.165 153.533 377.923 153.731 377.725C153.929 377.527 154.172 377.427 154.458 377.427C154.733 377.427 154.965 377.527 155.152 377.725C155.35 377.923 155.449 378.165 155.449 378.452C155.449 378.738 155.35 378.98 155.152 379.178C154.965 379.377 154.733 379.476 154.458 379.476ZM157.248 380.351C157.248 378.457 157.556 376.981 158.173 375.924C158.79 374.856 159.869 374.322 161.411 374.322C162.942 374.322 164.015 374.856 164.632 375.924C165.249 376.981 165.557 378.457 165.557 380.351C165.557 382.279 165.249 383.776 164.632 384.845C164.015 385.913 162.942 386.447 161.411 386.447C159.869 386.447 158.79 385.913 158.173 384.845C157.556 383.776 157.248 382.279 157.248 380.351ZM164.07 380.351C164.07 379.393 164.004 378.584 163.872 377.923C163.751 377.251 163.492 376.712 163.096 376.304C162.71 375.897 162.149 375.693 161.411 375.693C160.662 375.693 160.089 375.897 159.693 376.304C159.307 376.712 159.049 377.251 158.916 377.923C158.795 378.584 158.735 379.393 158.735 380.351C158.735 381.343 158.795 382.174 158.916 382.846C159.049 383.518 159.307 384.057 159.693 384.465C160.089 384.872 160.662 385.076 161.411 385.076C162.149 385.076 162.71 384.872 163.096 384.465C163.492 384.057 163.751 383.518 163.872 382.846C164.004 382.174 164.07 381.343 164.07 380.351ZM167.621 380.351C167.621 378.457 167.929 376.981 168.546 375.924C169.163 374.856 170.242 374.322 171.784 374.322C173.315 374.322 174.388 374.856 175.005 375.924C175.622 376.981 175.93 378.457 175.93 380.351C175.93 382.279 175.622 383.776 175.005 384.845C174.388 385.913 173.315 386.447 171.784 386.447C170.242 386.447 169.163 385.913 168.546 384.845C167.929 383.776 167.621 382.279 167.621 380.351ZM174.444 380.351C174.444 379.393 174.377 378.584 174.245 377.923C174.124 377.251 173.865 376.712 173.469 376.304C173.083 375.897 172.522 375.693 171.784 375.693C171.035 375.693 170.462 375.897 170.066 376.304C169.68 376.712 169.422 377.251 169.289 377.923C169.168 378.584 169.108 379.393 169.108 380.351C169.108 381.343 169.168 382.174 169.289 382.846C169.422 383.518 169.68 384.057 170.066 384.465C170.462 384.872 171.035 385.076 171.784 385.076C172.522 385.076 173.083 384.872 173.469 384.465C173.865 384.057 174.124 383.518 174.245 382.846C174.377 382.174 174.444 381.343 174.444 380.351Z" fill="white" fill-opacity="0.87"/>
<rect x="120.531" y="359.548" width="73.7974" height="42.7974" rx="9.91162" stroke="url(#paint5_linear_4402_24)" stroke-width="2.20258"/>
<defs>
<filter id="filter0_d_4402_24" x="0.94799" y="0.0834885" width="306.989" height="399.838" filterUnits="userSpaceOnUse" color-interpolation-filters="sRGB">
<feFlood flood-opacity="0" result="BackgroundImageFix"/>
<feColorMatrix in="SourceAlpha" type="matrix" values="0 0 0 0 0 0 0 0 0 0 0 0 0 0 0 0 0 0 127 0" result="hardAlpha"/>
<feOffset dy="16.9927"/>
<feGaussianBlur stdDeviation="21.2408"/>
<feComposite in2="hardAlpha" operator="out"/>
<feColorMatrix type="matrix" values="0 0 0 0 0.0705882 0 0 0 0 0.0235294 0 0 0 0 0.262745 0 0 0 1 0"/>
<feBlend mode="normal" in2="BackgroundImageFix" result="effect1_dropShadow_4402_24"/>
<feBlend mode="normal" in="SourceGraphic" in2="effect1_dropShadow_4402_24" result="shape"/>
</filter>
<filter id="filter1_d_4402_24" x="62.948" y="332.958" width="174.963" height="136.963" filterUnits="userSpaceOnUse" color-interpolation-filters="sRGB">
<feFlood flood-opacity="0" result="BackgroundImageFix"/>
<feColorMatrix in="SourceAlpha" type="matrix" values="0 0 0 0 0 0 0 0 0 0 0 0 0 0 0 0 0 0 127 0" result="hardAlpha"/>
<feOffset dy="16.9927"/>
<feGaussianBlur stdDeviation="21.2408"/>
<feComposite in2="hardAlpha" operator="out"/>
<feColorMatrix type="matrix" values="0 0 0 0 0.0705882 0 0 0 0 0.0235294 0 0 0 0 0.262745 0 0 0 1 0"/>
<feBlend mode="normal" in2="BackgroundImageFix" result="effect1_dropShadow_4402_24"/>
<feBlend mode="normal" in="SourceGraphic" in2="effect1_dropShadow_4402_24" result="shape"/>
</filter>
<linearGradient id="paint0_linear_4402_24" x1="246.369" y1="37.3355" x2="257.643" y2="301.684" gradientUnits="userSpaceOnUse">
<stop offset="0.0602708" stop-color="#3F238A"/>
<stop offset="0.126222" stop-color="#2B1564"/>
<stop offset="0.211728" stop-color="#2D146F"/>
<stop offset="0.646899" stop-color="#2B1C56"/>
<stop offset="0.913672" stop-color="#33216C"/>
<stop offset="1" stop-color="#251652"/>
</linearGradient>
<linearGradient id="paint1_linear_4402_24" x1="97.4763" y1="25.7837" x2="354.202" y2="198.005" gradientUnits="userSpaceOnUse">
<stop stop-color="#2E1371"/>
<stop offset="1" stop-color="#21232F"/>
</linearGradient>
<linearGradient id="paint2_linear_4402_24" x1="104.783" y1="-6.67227" x2="244.565" y2="99.3687" gradientUnits="userSpaceOnUse">
<stop stop-color="#09FBD3"/>
<stop offset="1" stop-color="#09FBD3" stop-opacity="0"/>
</linearGradient>
<linearGradient id="paint3_linear_4402_24" x1="174.995" y1="361.719" x2="176.89" y2="400.314" gradientUnits="userSpaceOnUse">
<stop offset="0.0602708" stop-color="#3F238A"/>
<stop offset="0.126222" stop-color="#2B1564"/>
<stop offset="0.211728" stop-color="#2D146F"/>
<stop offset="0.646899" stop-color="#2B1C56"/>
<stop offset="0.913672" stop-color="#33216C"/>
<stop offset="1" stop-color="#251652"/>
</linearGradient>
<linearGradient id="paint4_linear_4402_24" x1="127.03" y1="358.447" x2="161.928" y2="416.023" gradientUnits="userSpaceOnUse">
<stop stop-color="#2E1371"/>
<stop offset="1" stop-color="#202442"/>
</linearGradient>
<linearGradient id="paint5_linear_4402_24" x1="130.07" y1="353.385" x2="147.881" y2="386.139" gradientUnits="userSpaceOnUse">
<stop stop-color="#09FBD3"/>
<stop offset="1" stop-color="#09FBD3" stop-opacity="0"/>
</linearGradient>
</defs>
</svg>
