<svg width="246" height="461" viewBox="0 0 246 461" fill="none" xmlns="http://www.w3.org/2000/svg">
<path d="M-1.0514e-07 16.5194C-4.70729e-08 7.39601 7.39597 4.70726e-08 16.5194 1.0514e-07L234.446 1.49216e-06C240.528 1.53087e-06 245.459 4.93065 245.459 11.0129L245.459 308.44C245.459 320.171 235.949 329.681 224.218 329.681L16.5194 329.681C7.39599 329.681 -2.05123e-06 322.285 -1.99316e-06 313.162L-1.0514e-07 16.5194Z" fill="url(#paint0_linear_4495_33)"/>
<rect x="31.781" y="1.10202" width="212.574" height="300.653" rx="9.91162" fill="url(#paint1_linear_4495_33)" stroke="url(#paint2_linear_4495_33)" stroke-width="2.20258"/>
<path d="M111.768 105.278C109.435 105.278 107.335 104.878 105.468 104.078C103.602 103.245 102.135 102.078 101.068 100.578C100.002 99.078 99.4684 97.328 99.4684 95.328L105.568 95.328C105.702 96.828 106.285 98.0613 107.318 99.028C108.385 99.9946 109.868 100.478 111.768 100.478C113.735 100.478 115.268 100.011 116.368 99.078C117.468 98.1113 118.018 96.878 118.018 95.378C118.018 94.2113 117.668 93.2613 116.968 92.528C116.302 91.7946 115.452 91.228 114.418 90.828C113.418 90.428 112.018 89.9946 110.218 89.528C107.952 88.928 106.102 88.328 104.668 87.728C103.268 87.0946 102.068 86.128 101.068 84.828C100.068 83.528 99.5684 81.7946 99.5684 79.628C99.5684 77.628 100.068 75.878 101.068 74.378C102.068 72.878 103.468 71.728 105.268 70.928C107.068 70.128 109.152 69.728 111.518 69.728C114.885 69.728 117.635 70.578 119.768 72.278C121.935 73.9446 123.135 76.2446 123.368 79.178L117.068 79.178C116.968 77.9113 116.368 76.828 115.268 75.928C114.168 75.028 112.718 74.578 110.918 74.578C109.285 74.578 107.952 74.9946 106.918 75.828C105.885 76.6613 105.368 77.8613 105.368 79.428C105.368 80.4946 105.685 81.378 106.318 82.078C106.985 82.7446 107.818 83.278 108.818 83.678C109.818 84.078 111.185 84.5113 112.918 84.978C115.218 85.6113 117.085 86.2446 118.518 86.878C119.985 87.5113 121.218 88.4946 122.218 89.828C123.252 91.128 123.768 92.878 123.768 95.078C123.768 96.8446 123.285 98.5113 122.318 100.078C121.385 101.645 120.002 102.911 118.168 103.878C116.368 104.811 114.235 105.278 111.768 105.278ZM128.594 91.028C128.594 88.2613 129.161 85.8113 130.294 83.678C131.461 81.5446 133.027 79.8946 134.994 78.728C136.994 77.528 139.194 76.928 141.594 76.928C143.761 76.928 145.644 77.3613 147.244 78.228C148.877 79.0613 150.177 80.1113 151.144 81.378L151.144 77.378L156.894 77.378L156.894 104.928L151.144 104.928L151.144 100.828C150.177 102.128 148.861 103.211 147.194 104.078C145.527 104.945 143.627 105.378 141.494 105.378C139.127 105.378 136.961 104.778 134.994 103.578C133.027 102.345 131.461 100.645 130.294 98.478C129.161 96.278 128.594 93.7946 128.594 91.028ZM151.144 91.128C151.144 89.228 150.744 87.578 149.944 86.178C149.177 84.778 148.161 83.7113 146.894 82.978C145.627 82.2446 144.261 81.878 142.794 81.878C141.327 81.878 139.961 82.2446 138.694 82.978C137.427 83.678 136.394 84.728 135.594 86.128C134.827 87.4946 134.444 89.128 134.444 91.028C134.444 92.928 134.827 94.5946 135.594 96.028C136.394 97.4613 137.427 98.5613 138.694 99.328C139.994 100.061 141.361 100.428 142.794 100.428C144.261 100.428 145.627 100.061 146.894 99.328C148.161 98.5946 149.177 97.528 149.944 96.128C150.744 94.6946 151.144 93.028 151.144 91.128ZM171.031 82.028L171.031 97.278C171.031 98.3113 171.264 99.0613 171.731 99.528C172.231 99.9613 173.064 100.178 174.231 100.178L177.731 100.178L177.731 104.928L173.231 104.928C170.664 104.928 168.698 104.328 167.331 103.128C165.964 101.928 165.281 99.978 165.281 97.278L165.281 82.028L162.031 82.028L162.031 77.378L165.281 77.378L165.281 70.528L171.031 70.528L171.031 77.378L177.731 77.378L177.731 82.028L171.031 82.028Z" fill="white" fill-opacity="0.87"/>
<path d="M82.9684 221.228C85.235 219.428 86.2684 218.595 86.0684 218.728C92.6017 213.328 97.735 208.895 101.468 205.428C105.268 201.961 108.468 198.328 111.068 194.528C113.668 190.728 114.968 187.028 114.968 183.428C114.968 180.695 114.335 178.561 113.068 177.028C111.802 175.495 109.902 174.728 107.368 174.728C104.835 174.728 102.835 175.695 101.368 177.628C99.9684 179.495 99.2684 182.161 99.2684 185.628L82.7684 185.628C82.9017 179.961 84.1017 175.228 86.3684 171.428C88.7017 167.628 91.735 164.828 95.4684 163.028C99.2684 161.228 103.468 160.328 108.068 160.328C116.002 160.328 121.968 162.361 125.968 166.428C130.035 170.495 132.068 175.795 132.068 182.328C132.068 189.461 129.635 196.095 124.768 202.228C119.902 208.295 113.702 214.228 106.168 220.028L133.168 220.028L133.168 233.928L82.9684 233.928L82.9684 221.228ZM141.297 182.528C141.564 175.395 143.897 169.895 148.297 166.028C152.697 162.161 158.664 160.228 166.197 160.228C171.197 160.228 175.464 161.095 178.997 162.828C182.597 164.561 185.297 166.928 187.097 169.928C188.964 172.928 189.897 176.295 189.897 180.028C189.897 184.428 188.797 188.028 186.597 190.828C184.397 193.561 181.831 195.428 178.897 196.428L178.897 196.828C182.697 198.095 185.697 200.195 187.897 203.128C190.097 206.061 191.197 209.828 191.197 214.428C191.197 218.561 190.231 222.228 188.297 225.428C186.431 228.561 183.664 231.028 179.997 232.828C176.397 234.628 172.097 235.528 167.097 235.528C159.097 235.528 152.697 233.561 147.897 229.628C143.164 225.695 140.664 219.761 140.397 211.828L156.997 211.828C157.064 214.761 157.897 217.095 159.497 218.828C161.097 220.495 163.431 221.328 166.497 221.328C169.097 221.328 171.097 220.595 172.497 219.128C173.964 217.595 174.697 215.595 174.697 213.128C174.697 209.928 173.664 207.628 171.597 206.228C169.597 204.761 166.364 204.028 161.897 204.028L158.697 204.028L158.697 190.128L161.897 190.128C165.297 190.128 168.031 189.561 170.097 188.428C172.231 187.228 173.297 185.128 173.297 182.128C173.297 179.728 172.631 177.861 171.297 176.528C169.964 175.195 168.131 174.528 165.797 174.528C163.264 174.528 161.364 175.295 160.097 176.828C158.897 178.361 158.197 180.261 157.997 182.528L141.297 182.528Z" fill="white" fill-opacity="0.87"/>
<g filter="url(#filter0_d_4495_33)">
<path d="M79 364.293C79 355.847 85.8471 349 94.2934 349L157.987 349C164.069 349 169 353.931 169 360.013L169 384.007C169 393.392 161.392 401 152.007 401L93.3168 401C85.4098 401 79 394.59 79 386.683L79 364.293Z" fill="url(#paint3_linear_4495_33)"/>
</g>
<rect x="94.1013" y="350.101" width="73.7974" height="42.7974" rx="9.91162" fill="url(#paint4_linear_4495_33)"/>
<path d="M111.628 366.428L111.628 365.056L114.733 365.056L114.733 377L113.214 377L113.214 366.428L111.628 366.428ZM116.952 374.34L116.952 373.201L122.75 365.172L124.551 365.172L124.551 373.035L126.203 373.035L126.203 374.34L124.551 374.34L124.551 377L123.064 377L123.064 374.34L116.952 374.34ZM123.13 366.741L118.687 373.035L123.13 373.035L123.13 366.741ZM128.432 377.099C128.145 377.099 127.903 377 127.705 376.802C127.506 376.604 127.407 376.361 127.407 376.075C127.407 375.789 127.506 375.546 127.705 375.348C127.903 375.15 128.145 375.051 128.432 375.051C128.707 375.051 128.938 375.15 129.125 375.348C129.324 375.546 129.423 375.789 129.423 376.075C129.423 376.361 129.324 376.604 129.125 376.802C128.938 377 128.707 377.099 128.432 377.099ZM128.432 370.029C128.145 370.029 127.903 369.93 127.705 369.731C127.506 369.533 127.407 369.291 127.407 369.005C127.407 368.718 127.506 368.476 127.705 368.278C127.903 368.08 128.145 367.98 128.432 367.98C128.707 367.98 128.938 368.08 129.125 368.278C129.324 368.476 129.423 368.718 129.423 369.005C129.423 369.291 129.324 369.533 129.125 369.731C128.938 369.93 128.707 370.029 128.432 370.029ZM131.222 370.904C131.222 369.01 131.53 367.534 132.147 366.477C132.763 365.409 133.843 364.875 135.384 364.875C136.915 364.875 137.989 365.409 138.606 366.477C139.222 367.534 139.531 369.01 139.531 370.904C139.531 372.832 139.222 374.329 138.606 375.398C137.989 376.466 136.915 377 135.384 377C133.843 377 132.763 376.466 132.147 375.398C131.53 374.329 131.222 372.832 131.222 370.904ZM138.044 370.904C138.044 369.946 137.978 369.137 137.846 368.476C137.725 367.804 137.466 367.265 137.069 366.857C136.684 366.45 136.122 366.246 135.384 366.246C134.636 366.246 134.063 366.45 133.666 366.857C133.281 367.265 133.022 367.804 132.89 368.476C132.769 369.137 132.708 369.946 132.708 370.904C132.708 371.896 132.769 372.727 132.89 373.399C133.022 374.071 133.281 374.61 133.666 375.018C134.063 375.425 134.636 375.629 135.384 375.629C136.122 375.629 136.684 375.425 137.069 375.018C137.466 374.61 137.725 374.071 137.846 373.399C137.978 372.727 138.044 371.896 138.044 370.904ZM141.595 370.904C141.595 369.01 141.903 367.534 142.52 366.477C143.136 365.409 144.216 364.875 145.757 364.875C147.288 364.875 148.362 365.409 148.979 366.477C149.595 367.534 149.904 369.01 149.904 370.904C149.904 372.832 149.595 374.329 148.979 375.398C148.362 376.466 147.288 377 145.757 377C144.216 377 143.136 376.466 142.52 375.398C141.903 374.329 141.595 372.832 141.595 370.904ZM148.417 370.904C148.417 369.946 148.351 369.137 148.219 368.476C148.098 367.804 147.839 367.265 147.442 366.857C147.057 366.45 146.495 366.246 145.757 366.246C145.009 366.246 144.436 366.45 144.039 366.857C143.654 367.265 143.395 367.804 143.263 368.476C143.142 369.137 143.081 369.946 143.081 370.904C143.081 371.896 143.142 372.727 143.263 373.399C143.395 374.071 143.654 374.61 144.039 375.018C144.436 375.425 145.009 375.629 145.757 375.629C146.495 375.629 147.057 375.425 147.442 375.018C147.839 374.61 148.098 374.071 148.219 373.399C148.351 372.727 148.417 371.896 148.417 370.904Z" fill="white" fill-opacity="0.87"/>
<rect x="94.1013" y="350.101" width="73.7974" height="42.7974" rx="9.91162" stroke="url(#paint5_linear_4495_33)" stroke-width="2.20258"/>
<path d="M86.87 286.939L80.562 276.109L76.382 276.109L76.382 286.939L72.924 286.939L72.924 260.453L81.474 260.453C83.4754 260.453 85.16 260.795 86.528 261.479C87.9214 262.163 88.96 263.088 89.644 264.253C90.328 265.419 90.67 266.749 90.67 268.243C90.67 270.067 90.138 271.676 89.074 273.069C88.0354 274.463 86.4647 275.387 84.362 275.843L91.012 286.939L86.87 286.939ZM76.382 273.335L81.474 273.335C83.3487 273.335 84.7547 272.879 85.692 271.967C86.6294 271.03 87.098 269.789 87.098 268.243C87.098 266.673 86.6294 265.457 85.692 264.595C84.78 263.734 83.374 263.303 81.474 263.303L76.382 263.303L76.382 273.335ZM105.125 287.281C103.175 287.281 101.401 286.838 99.8052 285.951C98.2345 285.065 96.9932 283.811 96.0812 282.189C95.1945 280.543 94.7512 278.643 94.7512 276.489C94.7512 274.361 95.2072 272.487 96.1192 270.865C97.0565 269.219 98.3232 267.965 99.9192 267.103C101.515 266.217 103.301 265.773 105.277 265.773C107.253 265.773 109.039 266.217 110.635 267.103C112.231 267.965 113.485 269.206 114.397 270.827C115.335 272.449 115.803 274.336 115.803 276.489C115.803 278.643 115.322 280.543 114.359 282.189C113.422 283.811 112.143 285.065 110.521 285.951C108.9 286.838 107.101 287.281 105.125 287.281ZM105.125 284.241C106.367 284.241 107.532 283.95 108.621 283.367C109.711 282.785 110.585 281.911 111.243 280.745C111.927 279.58 112.269 278.161 112.269 276.489C112.269 274.817 111.94 273.399 111.281 272.233C110.623 271.068 109.761 270.207 108.697 269.649C107.633 269.067 106.481 268.775 105.239 268.775C103.973 268.775 102.807 269.067 101.743 269.649C100.705 270.207 99.8685 271.068 99.2352 272.233C98.6019 273.399 98.2852 274.817 98.2852 276.489C98.2852 278.187 98.5892 279.618 99.1972 280.783C99.8305 281.949 100.667 282.823 101.705 283.405C102.744 283.963 103.884 284.241 105.125 284.241ZM138.818 266.115L138.818 286.939L135.36 286.939L135.36 283.861C134.701 284.925 133.776 285.761 132.586 286.369C131.42 286.952 130.128 287.243 128.71 287.243C127.088 287.243 125.632 286.914 124.34 286.255C123.048 285.571 122.022 284.558 121.262 283.215C120.527 281.873 120.16 280.239 120.16 278.313L120.16 266.115L123.58 266.115L123.58 277.857C123.58 279.909 124.099 281.493 125.138 282.607C126.176 283.697 127.595 284.241 129.394 284.241C131.243 284.241 132.7 283.671 133.764 282.531C134.828 281.391 135.36 279.732 135.36 277.553L135.36 266.115L138.818 266.115ZM154.802 265.735C157.336 265.735 159.388 266.508 160.958 268.053C162.529 269.573 163.314 271.777 163.314 274.665L163.314 286.939L159.894 286.939L159.894 275.159C159.894 273.082 159.375 271.499 158.336 270.409C157.298 269.295 155.879 268.737 154.08 268.737C152.256 268.737 150.8 269.307 149.71 270.447C148.646 271.587 148.114 273.247 148.114 275.425L148.114 286.939L144.656 286.939L144.656 266.115L148.114 266.115L148.114 269.079C148.798 268.015 149.723 267.192 150.888 266.609C152.079 266.027 153.384 265.735 154.802 265.735ZM167.671 276.451C167.671 274.323 168.102 272.461 168.963 270.865C169.824 269.244 171.002 267.99 172.497 267.103C174.017 266.217 175.714 265.773 177.589 265.773C179.21 265.773 180.718 266.153 182.111 266.913C183.504 267.648 184.568 268.623 185.303 269.839L185.303 258.819L188.799 258.819L188.799 286.939L185.303 286.939L185.303 283.025C184.619 284.267 183.606 285.293 182.263 286.103C180.92 286.889 179.35 287.281 177.551 287.281C175.702 287.281 174.017 286.825 172.497 285.913C171.002 285.001 169.824 283.722 168.963 282.075C168.102 280.429 167.671 278.554 167.671 276.451ZM185.303 276.489C185.303 274.919 184.986 273.551 184.353 272.385C183.72 271.22 182.858 270.333 181.769 269.725C180.705 269.092 179.527 268.775 178.235 268.775C176.943 268.775 175.765 269.079 174.701 269.687C173.637 270.295 172.788 271.182 172.155 272.347C171.522 273.513 171.205 274.881 171.205 276.451C171.205 278.047 171.522 279.441 172.155 280.631C172.788 281.797 173.637 282.696 174.701 283.329C175.765 283.937 176.943 284.241 178.235 284.241C179.527 284.241 180.705 283.937 181.769 283.329C182.858 282.696 183.72 281.797 184.353 280.631C184.986 279.441 185.303 278.06 185.303 276.489ZM203.292 262.619L203.292 259.465L210.436 259.465L210.436 286.939L206.94 286.939L206.94 262.619L203.292 262.619Z" fill="white" fill-opacity="0.87"/>
<defs>
<filter id="filter0_d_4495_33" x="36.5183" y="323.511" width="174.963" height="136.963" filterUnits="userSpaceOnUse" color-interpolation-filters="sRGB">
<feFlood flood-opacity="0" result="BackgroundImageFix"/>
<feColorMatrix in="SourceAlpha" type="matrix" values="0 0 0 0 0 0 0 0 0 0 0 0 0 0 0 0 0 0 127 0" result="hardAlpha"/>
<feOffset dy="16.9927"/>
<feGaussianBlur stdDeviation="21.2408"/>
<feComposite in2="hardAlpha" operator="out"/>
<feColorMatrix type="matrix" values="0 0 0 0 0.0705882 0 0 0 0 0.0235294 0 0 0 0 0.262745 0 0 0 1 0"/>
<feBlend mode="normal" in2="BackgroundImageFix" result="effect1_dropShadow_4495_33"/>
<feBlend mode="normal" in="SourceGraphic" in2="effect1_dropShadow_4495_33" result="shape"/>
</filter>
<linearGradient id="paint0_linear_4495_33" x1="209.565" y1="1.76799e-06" x2="226.864" y2="297.93" gradientUnits="userSpaceOnUse">
<stop stop-color="#9E0F5D"/>
<stop offset="0.0655811" stop-color="#B83484"/>
<stop offset="0.133974" stop-color="#911060"/>
<stop offset="0.730575" stop-color="#4A0F64"/>
<stop offset="0.907126" stop-color="#55147E"/>
<stop offset="1" stop-color="#380B67"/>
</linearGradient>
<linearGradient id="paint1_linear_4495_33" x1="16.6435" y1="-38.5526" x2="313.101" y2="133.462" gradientUnits="userSpaceOnUse">
<stop stop-color="#B6116B"/>
<stop offset="1" stop-color="#3D1581"/>
</linearGradient>
<linearGradient id="paint2_linear_4495_33" x1="52.1573" y1="0.000733324" x2="182.147" y2="77.3582" gradientUnits="userSpaceOnUse">
<stop stop-color="#FE53BB"/>
<stop offset="1" stop-color="#FE53BB" stop-opacity="0"/>
</linearGradient>
<linearGradient id="paint3_linear_4495_33" x1="148.565" y1="352.272" x2="150.46" y2="390.867" gradientUnits="userSpaceOnUse">
<stop offset="0.0602708" stop-color="#3F238A"/>
<stop offset="0.126222" stop-color="#2B1564"/>
<stop offset="0.211728" stop-color="#2D146F"/>
<stop offset="0.646899" stop-color="#2B1C56"/>
<stop offset="0.913672" stop-color="#33216C"/>
<stop offset="1" stop-color="#251652"/>
</linearGradient>
<linearGradient id="paint4_linear_4495_33" x1="100.6" y1="349" x2="135.498" y2="406.576" gradientUnits="userSpaceOnUse">
<stop stop-color="#2E1371"/>
<stop offset="1" stop-color="#202442"/>
</linearGradient>
<linearGradient id="paint5_linear_4495_33" x1="103.64" y1="343.938" x2="121.451" y2="376.692" gradientUnits="userSpaceOnUse">
<stop stop-color="#09FBD3"/>
<stop offset="1" stop-color="#09FBD3" stop-opacity="0"/>
</linearGradient>
</defs>
</svg>
