<svg width="583" height="100" viewBox="0 0 583 100" fill="none" xmlns="http://www.w3.org/2000/svg">
<path d="M1.10129 22.0258C1.10129 10.4695 10.4695 1.10129 22.0258 1.10129L560.335 1.10129C571.892 1.10129 581.26 10.4695 581.26 22.0258V77.8075C581.26 89.3638 571.892 98.7321 560.335 98.7321L22.0258 98.7321C10.4695 98.7321 1.10129 89.3638 1.10129 77.8075L1.10129 22.0258Z" fill="url(#paint0_linear_4402_28)" stroke="url(#paint1_linear_4402_28)" stroke-width="2.20258"/>
<path d="M157.071 37.08V65H151.471V46.84L143.991 65H139.751L132.231 46.84V65H126.631V37.08H132.991L141.871 57.84L150.751 37.08H157.071ZM161.168 53.84C161.168 51.6 161.608 49.6133 162.488 47.88C163.394 46.1467 164.608 44.8133 166.128 43.88C167.674 42.9467 169.394 42.48 171.288 42.48C172.941 42.48 174.381 42.8133 175.608 43.48C176.861 44.1467 177.861 44.9867 178.608 46V42.84H184.248V65H178.608V61.76C177.888 62.8 176.888 63.6667 175.608 64.36C174.354 65.0267 172.901 65.36 171.248 65.36C169.381 65.36 167.674 64.88 166.128 63.92C164.608 62.96 163.394 61.6133 162.488 59.88C161.608 58.12 161.168 56.1067 161.168 53.84ZM178.608 53.92C178.608 52.56 178.341 51.4 177.808 50.44C177.274 49.4533 176.554 48.7067 175.648 48.2C174.741 47.6667 173.768 47.4 172.728 47.4C171.688 47.4 170.728 47.6533 169.848 48.16C168.968 48.6667 168.248 49.4133 167.688 50.4C167.154 51.36 166.888 52.5067 166.888 53.84C166.888 55.1733 167.154 56.3467 167.688 57.36C168.248 58.3467 168.968 59.1067 169.848 59.64C170.754 60.1733 171.714 60.44 172.728 60.44C173.768 60.44 174.741 60.1867 175.648 59.68C176.554 59.1467 177.274 58.4 177.808 57.44C178.341 56.4533 178.608 55.28 178.608 53.92ZM201.997 42.52C204.637 42.52 206.77 43.36 208.397 45.04C210.024 46.6933 210.837 49.0133 210.837 52V65H205.237V52.76C205.237 51 204.797 49.6533 203.917 48.72C203.037 47.76 201.837 47.28 200.317 47.28C198.77 47.28 197.544 47.76 196.637 48.72C195.757 49.6533 195.317 51 195.317 52.76V65H189.717V42.84H195.317V45.6C196.064 44.64 197.01 43.8933 198.157 43.36C199.33 42.8 200.61 42.52 201.997 42.52ZM236.762 53.44C236.762 54.24 236.709 54.96 236.602 55.6H220.402C220.536 57.2 221.096 58.4533 222.082 59.36C223.069 60.2667 224.282 60.72 225.722 60.72C227.802 60.72 229.282 59.8267 230.162 58.04H236.202C235.562 60.1733 234.336 61.9333 232.522 63.32C230.709 64.68 228.482 65.36 225.842 65.36C223.709 65.36 221.789 64.8933 220.082 63.96C218.402 63 217.082 61.6533 216.122 59.92C215.189 58.1867 214.722 56.1867 214.722 53.92C214.722 51.6267 215.189 49.6133 216.122 47.88C217.056 46.1467 218.362 44.8133 220.042 43.88C221.722 42.9467 223.656 42.48 225.842 42.48C227.949 42.48 229.829 42.9333 231.482 43.84C233.162 44.7467 234.456 46.04 235.362 47.72C236.296 49.3733 236.762 51.28 236.762 53.44ZM230.962 51.84C230.936 50.4 230.416 49.2533 229.402 48.4C228.389 47.52 227.149 47.08 225.682 47.08C224.296 47.08 223.122 47.5067 222.162 48.36C221.229 49.1867 220.656 50.3467 220.442 51.84H230.962ZM253.97 65L246.45 55.56V65H240.85V35.4H246.45V52.24L253.89 42.84H261.17L251.41 53.96L261.25 65H253.97ZM272.689 65.36C270.876 65.36 269.249 65.04 267.809 64.4C266.369 63.7333 265.223 62.84 264.369 61.72C263.543 60.6 263.089 59.36 263.009 58H268.649C268.756 58.8533 269.169 59.56 269.889 60.12C270.636 60.68 271.556 60.96 272.649 60.96C273.716 60.96 274.543 60.7467 275.129 60.32C275.743 59.8933 276.049 59.3467 276.049 58.68C276.049 57.96 275.676 57.4267 274.929 57.08C274.209 56.7067 273.049 56.3067 271.449 55.88C269.796 55.48 268.436 55.0667 267.369 54.64C266.329 54.2133 265.423 53.56 264.649 52.68C263.903 51.8 263.529 50.6133 263.529 49.12C263.529 47.8933 263.876 46.7733 264.569 45.76C265.289 44.7467 266.303 43.9467 267.609 43.36C268.943 42.7733 270.503 42.48 272.289 42.48C274.929 42.48 277.036 43.1467 278.609 44.48C280.183 45.7867 281.049 47.56 281.209 49.8H275.849C275.769 48.92 275.396 48.2267 274.729 47.72C274.089 47.1867 273.223 46.92 272.129 46.92C271.116 46.92 270.329 47.1067 269.769 47.48C269.236 47.8533 268.969 48.3733 268.969 49.04C268.969 49.7867 269.343 50.36 270.089 50.76C270.836 51.1333 271.996 51.52 273.569 51.92C275.169 52.32 276.489 52.7333 277.529 53.16C278.569 53.5867 279.463 54.2533 280.209 55.16C280.983 56.04 281.383 57.2133 281.409 58.68C281.409 59.96 281.049 61.1067 280.329 62.12C279.636 63.1333 278.623 63.9333 277.289 64.52C275.983 65.08 274.449 65.36 272.689 65.36ZM298.486 42.52C300.166 42.52 301.659 42.8933 302.966 43.64C304.273 44.36 305.286 45.44 306.006 46.88C306.753 48.2933 307.126 50 307.126 52V65H301.526V52.76C301.526 51 301.086 49.6533 300.206 48.72C299.326 47.76 298.126 47.28 296.606 47.28C295.059 47.28 293.833 47.76 292.926 48.72C292.046 49.6533 291.606 51 291.606 52.76V65H286.006V35.4H291.606V45.6C292.326 44.64 293.286 43.8933 294.486 43.36C295.686 42.8 297.019 42.52 298.486 42.52ZM311.011 53.84C311.011 51.6 311.451 49.6133 312.331 47.88C313.238 46.1467 314.451 44.8133 315.971 43.88C317.518 42.9467 319.238 42.48 321.131 42.48C322.785 42.48 324.225 42.8133 325.451 43.48C326.705 44.1467 327.705 44.9867 328.451 46V42.84H334.091V65H328.451V61.76C327.731 62.8 326.731 63.6667 325.451 64.36C324.198 65.0267 322.745 65.36 321.091 65.36C319.225 65.36 317.518 64.88 315.971 63.92C314.451 62.96 313.238 61.6133 312.331 59.88C311.451 58.12 311.011 56.1067 311.011 53.84ZM328.451 53.92C328.451 52.56 328.185 51.4 327.651 50.44C327.118 49.4533 326.398 48.7067 325.491 48.2C324.585 47.6667 323.611 47.4 322.571 47.4C321.531 47.4 320.571 47.6533 319.691 48.16C318.811 48.6667 318.091 49.4133 317.531 50.4C316.998 51.36 316.731 52.5067 316.731 53.84C316.731 55.1733 316.998 56.3467 317.531 57.36C318.091 58.3467 318.811 59.1067 319.691 59.64C320.598 60.1733 321.558 60.44 322.571 60.44C323.611 60.44 324.585 60.1867 325.491 59.68C326.398 59.1467 327.118 58.4 327.651 57.44C328.185 56.4533 328.451 55.28 328.451 53.92ZM370.281 42.84L363.801 65H357.761L353.721 49.52L349.681 65H343.601L337.081 42.84H342.761L346.681 59.72L350.921 42.84H356.841L361.001 59.68L364.921 42.84H370.281ZM406.002 37.08V65H400.402V53.12H388.442V65H382.842V37.08H388.442V48.56H400.402V37.08H406.002ZM410.074 53.84C410.074 51.6 410.514 49.6133 411.394 47.88C412.301 46.1467 413.514 44.8133 415.034 43.88C416.581 42.9467 418.301 42.48 420.194 42.48C421.847 42.48 423.287 42.8133 424.514 43.48C425.767 44.1467 426.767 44.9867 427.514 46V42.84H433.154V65H427.514V61.76C426.794 62.8 425.794 63.6667 424.514 64.36C423.261 65.0267 421.807 65.36 420.154 65.36C418.287 65.36 416.581 64.88 415.034 63.92C413.514 62.96 412.301 61.6133 411.394 59.88C410.514 58.12 410.074 56.1067 410.074 53.84ZM427.514 53.92C427.514 52.56 427.247 51.4 426.714 50.44C426.181 49.4533 425.461 48.7067 424.554 48.2C423.647 47.6667 422.674 47.4 421.634 47.4C420.594 47.4 419.634 47.6533 418.754 48.16C417.874 48.6667 417.154 49.4133 416.594 50.4C416.061 51.36 415.794 52.5067 415.794 53.84C415.794 55.1733 416.061 56.3467 416.594 57.36C417.154 58.3467 417.874 59.1067 418.754 59.64C419.661 60.1733 420.621 60.44 421.634 60.44C422.674 60.44 423.647 60.1867 424.554 59.68C425.461 59.1467 426.181 58.4 426.714 57.44C427.247 56.4533 427.514 55.28 427.514 53.92ZM444.223 35.4V65H438.623V35.4H444.223ZM455.356 35.4V65H449.756V35.4H455.356Z" fill="white" fill-opacity="0.87"/>
<defs>
<linearGradient id="paint0_linear_4402_28" x1="211.768" y1="-29.95" x2="300.898" y2="215.664" gradientUnits="userSpaceOnUse">
<stop stop-color="#B6116B"/>
<stop offset="1" stop-color="#3B1578"/>
</linearGradient>
<linearGradient id="paint1_linear_4402_28" x1="212.146" y1="2.16403e-06" x2="238.078" y2="75.6816" gradientUnits="userSpaceOnUse">
<stop stop-color="#FF53C0"/>
<stop offset="1" stop-color="#FF53C0" stop-opacity="0"/>
</linearGradient>
</defs>
</svg>
