<svg width="172" height="242" viewBox="0 0 172 242" fill="none" xmlns="http://www.w3.org/2000/svg">
<path d="M116.594 147.626V27.0962C99.6631 -3.29758 61.0691 -2.36639 59.6976 2.73094C58.326 7.82826 57.7356 147.626 57.7356 147.626C67.2069 161.661 76.903 167.716 88.1457 166.154C99.5186 166.452 109.879 160.579 116.594 147.626Z" fill="url(#paint0_linear_4054_3659)"/>
<path d="M57.7344 90.989V220.348C74.6651 250.742 113.259 240.982 114.631 235.885C116.002 230.787 116.593 90.989 116.593 90.989C107.121 76.954 97.4251 70.8999 86.1825 72.4614C74.8095 72.1639 64.4487 78.0367 57.7344 90.989Z" fill="url(#paint1_linear_4054_3659)"/>
<path d="M105.148 52.6018L28.2383 52.6018C6.52844 64.4533 -1.99025 91.4691 1.6507 92.4291C5.29165 93.3892 105.148 93.8025 105.148 93.8025C115.172 87.1726 119.497 80.3853 118.381 72.5155C118.594 64.5544 114.399 57.3018 105.148 52.6018Z" fill="url(#paint2_linear_4054_3659)"/>
<path d="M60.0208 93.8025H142.233C165.439 81.951 174.545 54.9352 170.653 53.9752C166.761 53.0151 60.0208 52.6018 60.0208 52.6018C49.3047 59.2317 44.6822 66.019 45.8745 73.8888C45.6473 81.8499 50.1314 89.1025 60.0208 93.8025Z" fill="url(#paint3_linear_4054_3659)"/>
<defs>
<linearGradient id="paint0_linear_4054_3659" x1="121.499" y1="142.858" x2="41.9924" y2="15.9097" gradientUnits="userSpaceOnUse">
<stop offset="0.136063" stop-color="#269AB2"/>
<stop offset="0.675606" stop-color="#10D9BD"/>
</linearGradient>
<linearGradient id="paint1_linear_4054_3659" x1="52.8295" y1="95.7576" x2="132.336" y2="222.706" gradientUnits="userSpaceOnUse">
<stop offset="0.136063" stop-color="#C638FF"/>
<stop offset="0.675606" stop-color="#41BBFC"/>
</linearGradient>
<linearGradient id="paint2_linear_4054_3659" x1="101.741" y1="49.1684" x2="12.1054" y2="106.452" gradientUnits="userSpaceOnUse">
<stop offset="0.136063" stop-color="#3472AB"/>
<stop offset="0.675606" stop-color="#10D9BD"/>
</linearGradient>
<linearGradient id="paint3_linear_4054_3659" x1="63.6618" y1="97.2359" x2="155.672" y2="34.381" gradientUnits="userSpaceOnUse">
<stop offset="0.136063" stop-color="#C638FF"/>
<stop offset="0.675606" stop-color="#41BBFC"/>
</linearGradient>
</defs>
</svg>
