<svg width="1205" height="259" viewBox="0 0 1205 259" fill="none" xmlns="http://www.w3.org/2000/svg">
<path d="M1063.24 156.869V28.7926C1045.25 -3.5042 1004.24 -2.51471 1002.78 2.90176C1001.33 8.31824 1000.7 156.869 1000.7 156.869C1010.76 171.783 1021.07 178.216 1033.01 176.557C1045.1 176.873 1056.11 170.632 1063.24 156.869Z" fill="url(#paint0_linear_4155_27)"/>
<path d="M1000.7 96.686V234.144C1018.69 266.441 1059.7 256.07 1061.16 250.653C1062.62 245.237 1063.24 96.686 1063.24 96.686C1053.18 81.7723 1042.88 75.3391 1030.93 76.9984C1018.84 76.6822 1007.83 82.9228 1000.7 96.686Z" fill="url(#paint1_linear_4155_27)"/>
<path d="M1051.08 55.895L969.355 55.895C946.286 68.4885 937.234 97.1958 941.103 98.2159C944.972 99.2361 1051.08 99.6753 1051.08 99.6753C1061.73 92.6303 1066.33 85.4181 1065.14 77.0555C1065.37 68.596 1060.91 60.8893 1051.08 55.895Z" fill="url(#paint2_linear_4155_27)"/>
<path d="M1003.13 99.6753H1090.49C1115.15 87.0818 1124.82 58.3745 1120.69 57.3544C1116.55 56.3342 1003.13 55.895 1003.13 55.895C991.742 62.94 986.83 70.1522 988.097 78.5148C987.855 86.9743 992.62 94.681 1003.13 99.6753Z" fill="url(#paint3_linear_4155_27)"/>
<path d="M61.5008 158.463V62.5634C53.008 49.4927 43.4861 41.8928 31.2716 41.6958C19.2984 41.7747 8.98251 48.264 0 62.5634V167.844C7.57144 200.185 15.7681 214.114 36.4835 232.472C55.3344 246.644 67.2155 250.392 88.6029 256.447H182.418C195.969 256.447 199.701 253.712 204.308 249.131C209.201 244.264 211.605 241.834 211.605 227.241L213.689 62.5634C204.275 48.9417 194.807 41.6355 182.418 42.2501C168.081 41.3729 158.04 47.624 151.146 62.5634V192.862H97.9844C77.0886 188.124 69.7661 179.725 61.5008 158.463Z" fill="url(#paint4_linear_4155_27)"/>
<path d="M151.148 62.5435V192.842C169.139 229.622 210.149 245.918 211.607 239.75C213.064 233.581 214.734 64.134 214.734 64.134C204.67 47.1498 194.505 42.0734 182.42 41.7132C170.335 41.3531 158.283 46.8696 151.148 62.5435Z" fill="url(#paint5_linear_4155_27)"/>
<path d="M151.148 62.5435V192.842C169.139 229.622 210.149 245.918 211.607 239.75C213.064 233.581 214.734 64.134 214.734 64.134C204.67 47.1498 194.505 42.0734 182.42 41.7132C170.335 41.3531 158.283 46.8696 151.148 62.5435Z" fill="url(#paint6_linear_4155_27)"/>
<path d="M96.9423 192.841C80.2641 188.671 70.8826 180.332 63.5859 167.824C67.1416 189.653 72.1336 198.189 81.5506 218.292C96.058 235.642 103.898 243.723 119.875 256.427H192.611C200.853 254.042 207.532 247.113 211.604 239.749C180.332 231.41 165.739 219.943 151.145 192.841H96.9423Z" fill="url(#paint7_linear_4155_27)"/>
<path d="M303.74 140.31L304.137 236.209C295.698 249.315 286.208 256.954 273.994 257.202C262.021 257.172 251.678 250.726 242.636 236.464L242.2 131.183C249.638 98.8115 257.777 84.8491 278.416 66.405C297.208 52.1555 309.074 48.3584 330.436 42.2145L429.462 41.8045C447.639 46.0534 454.391 55.0429 456.324 72.968L456.324 235.579C446.966 249.239 437.528 256.585 425.137 256.022C410.804 256.958 400.736 250.749 393.781 235.838L393.242 105.541L340.08 105.761C319.204 110.585 311.917 119.014 303.74 140.31Z" fill="url(#paint8_linear_4155_27)"/>
<path d="M394.023 236.623L392.98 105.283C410.818 68.4279 455.083 53.2547 456.566 59.417C458.049 65.5794 456.566 235.581 456.566 235.581C453.439 248.089 444.057 256.286 425.146 256.286C406.531 256.286 398.193 248.089 394.023 236.623Z" fill="url(#paint9_linear_4155_27)"/>
<path d="M394.023 236.623L392.98 105.283C410.818 68.4279 455.083 53.2547 456.566 59.417C458.049 65.5794 456.566 235.581 456.566 235.581C453.439 248.089 444.057 256.286 425.146 256.286C406.531 256.286 398.193 248.089 394.023 236.623Z" fill="url(#paint10_linear_4155_27)"/>
<path d="M336.693 106.324C321.057 110.494 311.936 120.981 304.379 135.511C307.844 113.667 314.719 100.516 324.053 80.3735C338.488 62.9639 347.106 54.8466 363.03 42.0769L429.465 41.6964C433.442 42.8291 439.485 44.1025 444.059 46.9083C448.976 49.9252 454.442 55.6103 456.567 59.417C430.375 72.5313 410.438 78.1136 394.024 105.282C372.134 105.282 356.498 105.282 336.693 106.324Z" fill="url(#paint11_linear_4155_27)"/>
<path d="M644.065 140.422L643.668 236.32C652.107 249.426 661.597 257.065 673.811 257.313C685.784 257.284 696.127 250.837 705.168 236.575L705.604 131.295C698.167 98.9228 690.028 84.9604 669.389 66.5163C650.597 52.2669 638.731 48.4697 617.369 42.3258L518.343 41.9158C500.165 46.1647 493.414 55.1542 491.481 73.0793L491.481 235.69C500.839 249.351 510.277 256.696 522.668 256.133C537.001 257.069 547.068 250.86 554.024 235.949L554.563 105.652L607.724 105.872C628.6 110.697 635.888 119.125 644.065 140.422Z" fill="url(#paint12_linear_4155_27)"/>
<path d="M553.782 236.734L554.825 105.394C536.987 68.5392 492.722 53.366 491.239 59.5283C489.756 65.6907 491.239 235.692 491.239 235.692C494.366 248.201 503.747 256.398 522.659 256.398C541.273 256.398 549.612 248.201 553.782 236.734Z" fill="url(#paint13_linear_4155_27)"/>
<path d="M553.782 236.734L554.825 105.394C536.987 68.5392 492.722 53.366 491.239 59.5283C489.756 65.6907 491.239 235.692 491.239 235.692C494.366 248.201 503.747 256.398 522.659 256.398C541.273 256.398 549.612 248.201 553.782 236.734Z" fill="url(#paint14_linear_4155_27)"/>
<path d="M611.116 106.436C626.751 110.605 635.873 121.093 643.43 135.623C639.964 113.778 633.089 100.627 623.756 80.4849C609.32 63.0752 600.702 54.958 584.779 42.1882L518.343 41.8077C514.367 42.9404 508.323 44.2138 503.75 47.0196C498.832 50.0365 493.366 55.7216 491.241 59.5283C517.434 72.6426 537.37 78.225 553.784 105.393C575.675 105.393 591.31 105.393 611.116 106.436Z" fill="url(#paint15_linear_4155_27)"/>
<path d="M864.863 108.554L864.924 236.144C872.501 249.246 881.026 256.881 892.001 257.124C902.76 257.09 912.057 250.639 920.188 236.373L920.624 131.093C920.618 118.914 919.876 104.32 918.71 97.0227C917.544 89.7255 915.216 85.5559 912.888 80.342C911.165 76.4844 907.915 70.1387 907.068 68.8742C903.577 63.6608 900.086 58.4473 891.944 54.2733C884.395 50.4029 886.842 51.567 880.313 49.0574C872.172 45.9277 865.679 44.6723 858.217 43.8349C853.566 43.313 847.751 42.1631 841.372 42.1608L734.38 42.1598C728.854 55.2467 730.598 51.9138 728.854 69.8397L728.168 235.578C736.571 249.234 745.049 256.576 756.184 256.007C769.063 256.938 778.112 250.724 784.369 235.81L784.297 85.4998L839.632 85.5235C844.283 85.5255 846.887 86.0766 848.935 86.5699C853.606 87.6953 856.441 90.0608 858.24 91.7859C859.364 92.8633 861.144 95.0157 862.895 100.127C863.635 102.285 864.861 104.942 864.863 108.554Z" fill="url(#paint16_linear_4155_27)"/>
<path d="M785.355 235.872L785.355 82.3489C769.422 46.0335 730.444 37.7068 729.116 43.7807C727.788 49.8546 728.078 235.579 728.078 235.579C737.005 252.355 744.756 255.385 756.219 256.427C767.021 256.827 778.913 251.293 785.355 235.872Z" fill="url(#paint17_linear_4155_27)"/>
<path d="M785.355 235.872L785.355 82.3489C769.422 46.0335 730.444 37.7068 729.116 43.7807C727.788 49.8546 728.078 235.579 728.078 235.579C737.005 252.355 744.756 255.385 756.219 256.427C767.021 256.827 778.913 251.293 785.355 235.872Z" fill="url(#paint18_linear_4155_27)"/>
<path d="M785.176 180.229C817.916 166.05 858.109 175.31 876.064 188.672C880.266 191.799 890.69 193.884 896.912 197.011C902.247 198.053 918.789 202.483 920.887 202.223C918.567 193.68 912.815 182.207 906.294 175.818C901.49 171.112 896.27 166.336 891.7 160.528C875.063 148.68 867.725 146.976 867.725 146.976C867.725 146.976 816.742 124.158 781.608 123.179C772.121 124.759 743.32 151.279 738.616 156.26C768.768 165.214 766.244 161.752 785.176 180.229Z" fill="url(#paint19_linear_4155_27)"/>
<path d="M1142.45 238.57V124.156C1160.44 91.8588 1201.45 79.186 1202.91 84.6024C1204.37 90.0189 1205 238.57 1205 238.57C1194.93 253.484 1184.63 259.917 1172.68 258.257C1160.6 258.574 1149.59 252.333 1142.45 238.57Z" fill="url(#paint20_linear_4155_27)"/>
<circle cx="1173.72" cy="39.6115" r="31.2716" fill="#389DD4"/>
<defs>
<linearGradient id="paint0_linear_4155_27" x1="1068.45" y1="151.802" x2="983.97" y2="16.9057" gradientUnits="userSpaceOnUse">
<stop offset="0.136063" stop-color="#269AB2"/>
<stop offset="0.675606" stop-color="#10D9BD"/>
</linearGradient>
<linearGradient id="paint1_linear_4155_27" x1="995.487" y1="101.753" x2="1079.97" y2="236.649" gradientUnits="userSpaceOnUse">
<stop offset="0.136063" stop-color="#C638FF"/>
<stop offset="0.675606" stop-color="#41BBFC"/>
</linearGradient>
<linearGradient id="paint2_linear_4155_27" x1="1047.46" y1="52.2467" x2="952.212" y2="113.117" gradientUnits="userSpaceOnUse">
<stop offset="0.136063" stop-color="#3472AB"/>
<stop offset="0.675606" stop-color="#10D9BD"/>
</linearGradient>
<linearGradient id="paint3_linear_4155_27" x1="1007" y1="103.324" x2="1104.77" y2="36.5334" gradientUnits="userSpaceOnUse">
<stop offset="0.136063" stop-color="#C638FF"/>
<stop offset="0.675606" stop-color="#41BBFC"/>
</linearGradient>
<linearGradient id="paint4_linear_4155_27" x1="106.845" y1="41.6958" x2="106.845" y2="256.447" gradientUnits="userSpaceOnUse">
<stop stop-color="#0FF2D7"/>
<stop offset="1" stop-color="#3B99D4"/>
</linearGradient>
<linearGradient id="paint5_linear_4155_27" x1="214.734" y1="67.4826" x2="152.191" y2="161.297" gradientUnits="userSpaceOnUse">
<stop stop-color="#1CD1C3"/>
<stop offset="0.573968" stop-color="#2E9FDA"/>
</linearGradient>
<linearGradient id="paint6_linear_4155_27" x1="174.16" y1="105.908" x2="208.48" y2="241.561" gradientUnits="userSpaceOnUse">
<stop offset="0.136063" stop-color="#41BBFC"/>
<stop offset="1" stop-color="#C638FF"/>
</linearGradient>
<linearGradient id="paint7_linear_4155_27" x1="71.925" y1="191.799" x2="185.545" y2="249.13" gradientUnits="userSpaceOnUse">
<stop offset="0.0625" stop-color="#41BBFC" stop-opacity="0.06"/>
<stop offset="0.42834" stop-color="#41BBFC"/>
<stop offset="1" stop-color="#C638FF"/>
</linearGradient>
<linearGradient id="paint8_linear_4155_27" x1="349.566" y1="256.889" x2="348.677" y2="42.139" gradientUnits="userSpaceOnUse">
<stop stop-color="#0FF2D7"/>
<stop offset="1" stop-color="#3B99D4"/>
</linearGradient>
<linearGradient id="paint9_linear_4155_27" x1="457.345" y1="230.383" x2="394.414" y2="136.827" gradientUnits="userSpaceOnUse">
<stop stop-color="#1CD1C3"/>
<stop offset="0.573968" stop-color="#2E9FDA"/>
</linearGradient>
<linearGradient id="paint10_linear_4155_27" x1="394.345" y1="120.149" x2="450.37" y2="56.3313" gradientUnits="userSpaceOnUse">
<stop stop-color="#41BBFC" stop-opacity="0.254902"/>
<stop offset="1" stop-color="#C638FF"/>
</linearGradient>
<linearGradient id="paint11_linear_4155_27" x1="309.591" y1="128.215" x2="443.016" y2="45.8659" gradientUnits="userSpaceOnUse">
<stop offset="0.0729167" stop-color="#41BBFC" stop-opacity="0.17"/>
<stop offset="0.38161" stop-color="#41BBFC"/>
<stop offset="1" stop-color="#C638FF"/>
</linearGradient>
<linearGradient id="paint12_linear_4155_27" x1="598.238" y1="257" x2="599.127" y2="42.2503" gradientUnits="userSpaceOnUse">
<stop stop-color="#0FF2D7"/>
<stop offset="1" stop-color="#3B99D4"/>
</linearGradient>
<linearGradient id="paint13_linear_4155_27" x1="490.459" y1="230.494" x2="553.39" y2="136.939" gradientUnits="userSpaceOnUse">
<stop stop-color="#1CD1C3"/>
<stop offset="0.573968" stop-color="#2E9FDA"/>
</linearGradient>
<linearGradient id="paint14_linear_4155_27" x1="553.46" y1="120.261" x2="497.434" y2="56.4427" gradientUnits="userSpaceOnUse">
<stop offset="0.136063" stop-color="#41BBFC"/>
<stop offset="1" stop-color="#C638FF"/>
</linearGradient>
<linearGradient id="paint15_linear_4155_27" x1="638.218" y1="128.326" x2="504.792" y2="45.9773" gradientUnits="userSpaceOnUse">
<stop offset="0.0729167" stop-color="#41BBFC" stop-opacity="0.17"/>
<stop offset="0.38161" stop-color="#41BBFC"/>
<stop offset="1" stop-color="#C638FF"/>
</linearGradient>
<linearGradient id="paint16_linear_4155_27" x1="894.858" y1="178.248" x2="824.98" y2="42.093" gradientUnits="userSpaceOnUse">
<stop stop-color="#1ADDD8"/>
<stop offset="1" stop-color="#3B99D4"/>
</linearGradient>
<linearGradient id="paint17_linear_4155_27" x1="728.905" y1="230.03" x2="792.994" y2="143.581" gradientUnits="userSpaceOnUse">
<stop stop-color="#1CD1C3"/>
<stop offset="0.573968" stop-color="#2E9FDA"/>
</linearGradient>
<linearGradient id="paint18_linear_4155_27" x1="771.953" y1="268.301" x2="765.468" y2="177.143" gradientUnits="userSpaceOnUse">
<stop offset="0.136063" stop-color="#41BBFC"/>
<stop offset="0.96875" stop-color="#C638FF"/>
</linearGradient>
<linearGradient id="paint19_linear_4155_27" x1="903.75" y1="185.928" x2="794.627" y2="172.798" gradientUnits="userSpaceOnUse">
<stop offset="0.0392616" stop-color="#1ADDD8" stop-opacity="0"/>
<stop offset="0.385197" stop-color="#1BDCD8"/>
<stop offset="1" stop-color="#C638FF"/>
</linearGradient>
<linearGradient id="paint20_linear_4155_27" x1="1137.24" y1="233.503" x2="1221.73" y2="98.6063" gradientUnits="userSpaceOnUse">
<stop offset="0.136063" stop-color="#C638FF"/>
<stop offset="0.675606" stop-color="#41BBFC"/>
</linearGradient>
</defs>
</svg>
