<svg width="1554" height="339" viewBox="0 0 1554 339" fill="none" xmlns="http://www.w3.org/2000/svg">
<g filter="url(#filter0_d_4048_47)">
<path d="M1371.19 202.303V37.1316C1347.99 -4.51917 1295.1 -3.24309 1293.22 3.74214C1291.34 10.7274 1290.53 202.303 1290.53 202.303C1303.51 221.536 1316.8 229.832 1332.21 227.692C1347.79 228.1 1361.99 220.052 1371.19 202.303Z" fill="url(#paint0_linear_4048_47)"/>
<path d="M1290.54 124.686V301.956C1313.74 343.607 1366.62 330.232 1368.5 323.247C1370.38 316.261 1371.19 124.686 1371.19 124.686C1358.21 105.453 1344.93 97.1564 1329.52 99.2963C1313.93 98.8886 1299.74 106.937 1290.54 124.686Z" fill="url(#paint1_linear_4048_47)"/>
<path d="M1355.51 72.0811L1250.11 72.0811C1220.36 88.322 1208.69 125.344 1213.68 126.659C1218.67 127.975 1355.51 128.541 1355.51 128.541C1369.25 119.456 1375.17 110.155 1373.64 99.3702C1373.94 88.4606 1368.19 78.5218 1355.51 72.0811Z" fill="url(#paint2_linear_4048_47)"/>
<path d="M1293.66 128.543H1406.32C1438.13 112.302 1450.6 75.2804 1445.27 73.9647C1439.94 72.6491 1293.66 72.0827 1293.66 72.0827C1278.98 81.1682 1272.64 90.4692 1274.28 101.254C1273.97 112.163 1280.11 122.102 1293.66 128.543Z" fill="url(#paint3_linear_4048_47)"/>
</g>
<path d="M79.3132 204.359V80.6844C68.3605 63.828 56.0808 54.027 40.3287 53.7729C24.8877 53.8747 11.5841 62.2435 0 80.6844V216.458C9.76434 258.165 20.3349 276.128 47.0502 299.804C71.3608 318.08 86.683 322.913 114.265 330.723H235.251C252.727 330.723 257.54 327.195 263.481 321.287C269.792 315.011 272.891 311.877 272.891 293.057L275.58 80.6844C263.439 63.1175 251.228 53.6952 235.251 54.4878C216.762 53.3566 203.812 61.4181 194.922 80.6844V248.721H126.363C99.4156 242.61 89.9723 231.779 79.3132 204.359Z" fill="url(#paint4_linear_4048_47)"/>
<path d="M194.926 80.657V248.693C218.127 296.127 271.015 317.142 272.895 309.187C274.774 301.232 276.928 82.7081 276.928 82.7081C263.948 60.8049 250.84 54.2581 235.255 53.7936C219.669 53.3293 204.127 60.4435 194.926 80.657Z" fill="url(#paint5_linear_4048_47)"/>
<path d="M194.926 80.657V248.693C218.127 296.127 271.015 317.142 272.895 309.187C274.774 301.232 276.928 82.7081 276.928 82.7081C263.948 60.8049 250.84 54.2581 235.255 53.7936C219.669 53.3293 204.127 60.4435 194.926 80.657Z" fill="url(#paint6_linear_4048_47)"/>
<path d="M125.017 248.695C103.509 243.318 91.41 232.564 82 216.432C86.5854 244.584 93.0234 255.592 105.168 281.517C123.877 303.892 133.988 314.314 154.592 330.697H248.394C259.024 327.622 267.637 318.685 272.888 309.189C232.559 298.434 213.739 283.647 194.919 248.695H125.017Z" fill="url(#paint7_linear_4048_47)"/>
<path d="M391.709 180.947L392.221 304.62C381.338 321.522 369.099 331.374 353.348 331.693C337.907 331.655 324.568 323.341 312.908 304.949L312.346 169.176C321.938 127.429 332.434 109.422 359.051 85.6363C383.285 67.2599 398.588 62.3629 426.137 54.4396L553.843 53.9109C577.286 59.3903 585.993 70.9834 588.485 94.1002L588.485 303.808C576.418 321.425 564.246 330.898 548.266 330.171C529.782 331.379 516.798 323.371 507.829 304.142L507.133 136.107L438.575 136.391C411.653 142.613 402.254 153.482 391.709 180.947Z" fill="url(#paint8_linear_4048_47)"/>
<path d="M508.14 305.156L506.795 135.775C529.799 88.2465 586.885 68.6787 588.797 76.6259C590.71 84.573 588.797 303.812 588.797 303.812C584.764 319.943 572.666 330.514 548.277 330.514C524.271 330.514 513.518 319.943 508.14 305.156Z" fill="url(#paint9_linear_4048_47)"/>
<path d="M508.14 305.156L506.795 135.775C529.799 88.2465 586.885 68.6787 588.797 76.6259C590.71 84.573 588.797 303.812 588.797 303.812C584.764 319.943 572.666 330.514 548.277 330.514C524.271 330.514 513.518 319.943 508.14 305.156Z" fill="url(#paint10_linear_4048_47)"/>
<path d="M434.204 137.118C414.04 142.495 402.277 156.02 392.531 174.758C397 146.587 405.866 129.627 417.903 103.651C436.52 81.1987 447.634 70.7305 468.169 54.2623L553.846 53.7716C558.975 55.2323 566.768 56.8745 572.666 60.493C579.008 64.3837 586.057 71.7153 588.798 76.6245C555.019 93.5372 529.308 100.736 508.14 135.773C479.91 135.773 459.746 135.773 434.204 137.118Z" fill="url(#paint11_linear_4048_47)"/>
<path d="M830.604 181.092L830.092 304.765C840.975 321.667 853.214 331.519 868.965 331.838C884.406 331.8 897.744 323.486 909.404 305.094L909.966 169.321C900.375 127.574 889.879 109.567 863.262 85.7813C839.027 67.4049 823.725 62.5079 796.176 54.5846L668.469 54.0559C645.027 59.5353 636.32 71.1284 633.827 94.2452L633.827 303.953C645.895 321.57 658.067 331.043 674.047 330.316C692.531 331.524 705.514 323.516 714.484 304.287L715.18 136.252L783.738 136.536C810.66 142.758 820.058 153.627 830.604 181.092Z" fill="url(#paint12_linear_4048_47)"/>
<path d="M714.173 305.301L715.518 135.92C692.513 88.3915 635.428 68.8237 633.515 76.7709C631.603 84.718 633.515 303.957 633.515 303.957C637.548 320.088 649.647 330.659 674.036 330.659C698.041 330.659 708.795 320.088 714.173 305.301Z" fill="url(#paint13_linear_4048_47)"/>
<path d="M714.173 305.301L715.518 135.92C692.513 88.3915 635.428 68.8237 633.515 76.7709C631.603 84.718 633.515 303.957 633.515 303.957C637.548 320.088 649.647 330.659 674.036 330.659C698.041 330.659 708.795 320.088 714.173 305.301Z" fill="url(#paint14_linear_4048_47)"/>
<path d="M788.116 137.263C808.28 142.64 820.044 156.165 829.789 174.903C825.32 146.732 816.454 129.772 804.417 103.796C785.801 81.3438 774.687 70.8755 754.151 54.4073L668.474 53.9166C663.346 55.3773 655.552 57.0195 649.654 60.6381C643.312 64.5287 636.263 71.8603 633.523 76.7696C667.301 93.6822 693.012 100.881 714.18 135.918C742.41 135.918 762.575 135.918 788.116 137.263Z" fill="url(#paint15_linear_4048_47)"/>
<path d="M1115.35 139.994L1115.43 304.538C1125.2 321.435 1136.19 331.281 1150.35 331.594C1164.22 331.55 1176.21 323.231 1186.7 304.833L1187.26 169.061C1187.25 153.354 1186.3 134.534 1184.79 125.123C1183.29 115.712 1180.29 110.335 1177.28 103.611C1175.06 98.6364 1170.87 90.4528 1169.78 88.8221C1165.28 82.0987 1160.77 75.3753 1150.27 69.9923C1140.54 65.001 1143.69 66.5022 1135.27 63.2657C1124.77 59.2296 1116.4 57.6106 1106.78 56.5307C1100.78 55.8576 1093.28 54.3746 1085.05 54.3718L947.074 54.3704C939.947 71.2477 942.197 66.9494 939.947 90.0672L939.063 303.808C949.899 321.42 960.833 330.887 975.193 330.154C991.802 331.354 1003.47 323.341 1011.54 304.108L1011.45 110.263L1082.81 110.294C1088.81 110.296 1092.17 111.007 1094.81 111.643C1100.83 113.094 1104.49 116.145 1106.81 118.37C1108.26 119.759 1110.55 122.535 1112.81 129.127C1113.77 131.91 1115.35 135.336 1115.35 139.994Z" fill="url(#paint16_linear_4048_47)"/>
<path d="M1012.82 304.185L1012.82 106.198C992.27 59.3644 942.003 48.626 940.29 56.4591C938.577 64.2921 938.951 303.808 938.951 303.808C950.464 325.443 960.46 329.35 975.243 330.694C989.174 331.21 1004.51 324.073 1012.82 304.185Z" fill="url(#paint17_linear_4048_47)"/>
<path d="M1012.82 304.185L1012.82 106.198C992.27 59.3644 942.003 48.626 940.29 56.4591C938.577 64.2921 938.951 303.808 938.951 303.808C950.464 325.443 960.46 329.35 975.243 330.694C989.174 331.21 1004.51 324.073 1012.82 304.185Z" fill="url(#paint18_linear_4048_47)"/>
<path d="M1012.59 232.43C1054.81 214.144 1106.64 226.086 1129.8 243.318C1135.22 247.351 1148.66 250.04 1156.68 254.072C1163.56 255.416 1184.9 261.13 1187.6 260.794C1184.61 249.776 1177.19 234.98 1168.78 226.741C1162.59 220.672 1162.58 209.009 1156.68 201.518C1135.23 186.239 1120.07 182.831 1122 177C1123.93 171.169 1055.35 153.728 1007.98 158.856C995.749 160.894 958.607 195.096 952.541 201.518C991.424 213.066 988.171 208.602 1012.59 232.43Z" fill="url(#paint19_linear_4048_47)"/>
<path d="M1473.34 307.663V160.111C1496.54 118.46 1549.43 102.117 1551.31 109.102C1553.19 116.087 1554 307.663 1554 307.663C1541.02 326.896 1527.73 335.192 1512.32 333.052C1496.74 333.46 1482.54 325.412 1473.34 307.663Z" fill="url(#paint20_linear_4048_47)"/>
<circle cx="1513.67" cy="51.0817" r="40.3287" fill="#389DD4"/>
<defs>
<filter id="filter0_d_4048_47" x="1208.56" y="0" width="241.902" height="338.965" filterUnits="userSpaceOnUse" color-interpolation-filters="sRGB">
<feFlood flood-opacity="0" result="BackgroundImageFix"/>
<feColorMatrix in="SourceAlpha" type="matrix" values="0 0 0 0 0 0 0 0 0 0 0 0 0 0 0 0 0 0 127 0" result="hardAlpha"/>
<feOffset dy="4"/>
<feGaussianBlur stdDeviation="2"/>
<feComposite in2="hardAlpha" operator="out"/>
<feColorMatrix type="matrix" values="0 0 0 0 0 0 0 0 0 0 0 0 0 0 0 0 0 0 0.25 0"/>
<feBlend mode="normal" in2="BackgroundImageFix" result="effect1_dropShadow_4048_47"/>
<feBlend mode="normal" in="SourceGraphic" in2="effect1_dropShadow_4048_47" result="shape"/>
</filter>
<linearGradient id="paint0_linear_4048_47" x1="1377.91" y1="195.768" x2="1268.96" y2="21.802" gradientUnits="userSpaceOnUse">
<stop offset="0.136063" stop-color="#269AB2"/>
<stop offset="0.675606" stop-color="#10D9BD"/>
</linearGradient>
<linearGradient id="paint1_linear_4048_47" x1="1283.81" y1="131.221" x2="1392.77" y2="305.187" gradientUnits="userSpaceOnUse">
<stop offset="0.136063" stop-color="#FF1F4C"/>
<stop offset="0.675606" stop-color="#FFA318"/>
</linearGradient>
<linearGradient id="paint2_linear_4048_47" x1="1350.84" y1="67.376" x2="1228.01" y2="145.876" gradientUnits="userSpaceOnUse">
<stop offset="0.136063" stop-color="#3472AB"/>
<stop offset="0.675606" stop-color="#10D9BD"/>
</linearGradient>
<linearGradient id="paint3_linear_4048_47" x1="1298.65" y1="133.248" x2="1424.74" y2="47.1134" gradientUnits="userSpaceOnUse">
<stop offset="0.136063" stop-color="#FF1F4C"/>
<stop offset="0.675606" stop-color="#FFA318"/>
</linearGradient>
<linearGradient id="paint4_linear_4048_47" x1="137.79" y1="53.7729" x2="137.79" y2="330.723" gradientUnits="userSpaceOnUse">
<stop stop-color="#0FF2D7"/>
<stop offset="1" stop-color="#3B99D4"/>
</linearGradient>
<linearGradient id="paint5_linear_4048_47" x1="276.928" y1="87.0266" x2="196.27" y2="208.013" gradientUnits="userSpaceOnUse">
<stop stop-color="#1CD1C3"/>
<stop offset="0.573968" stop-color="#2E9FDA"/>
</linearGradient>
<linearGradient id="paint6_linear_4048_47" x1="236.599" y1="53.4193" x2="268.862" y2="311.523" gradientUnits="userSpaceOnUse">
<stop offset="0.136063" stop-color="#FFA318"/>
<stop offset="1" stop-color="#FF1F4C"/>
</linearGradient>
<linearGradient id="paint7_linear_4048_47" x1="92.7543" y1="247.351" x2="239.282" y2="321.287" gradientUnits="userSpaceOnUse">
<stop offset="0.0625" stop-color="#FF9E1A" stop-opacity="0.06"/>
<stop offset="0.42834" stop-color="#FF9E1A"/>
<stop offset="1" stop-color="#FF295C"/>
</linearGradient>
<linearGradient id="paint8_linear_4048_47" x1="450.808" y1="331.289" x2="449.662" y2="54.3422" gradientUnits="userSpaceOnUse">
<stop stop-color="#0FF2D7"/>
<stop offset="1" stop-color="#3B99D4"/>
</linearGradient>
<linearGradient id="paint9_linear_4048_47" x1="589.802" y1="297.108" x2="508.645" y2="176.457" gradientUnits="userSpaceOnUse">
<stop stop-color="#1CD1C3"/>
<stop offset="0.573968" stop-color="#2E9FDA"/>
</linearGradient>
<linearGradient id="paint10_linear_4048_47" x1="508.555" y1="154.948" x2="580.807" y2="72.6465" gradientUnits="userSpaceOnUse">
<stop offset="0.136063" stop-color="#FFA318"/>
<stop offset="1" stop-color="#FF1F4C"/>
</linearGradient>
<linearGradient id="paint11_linear_4048_47" x1="399.253" y1="165.348" x2="571.322" y2="59.1488" gradientUnits="userSpaceOnUse">
<stop offset="0.0729167" stop-color="#FF9E1A" stop-opacity="0.17"/>
<stop offset="0.38161" stop-color="#FF9E1A"/>
<stop offset="1" stop-color="#FF295C"/>
</linearGradient>
<linearGradient id="paint12_linear_4048_47" x1="771.504" y1="331.434" x2="772.651" y2="54.4872" gradientUnits="userSpaceOnUse">
<stop stop-color="#0FF2D7"/>
<stop offset="1" stop-color="#3B99D4"/>
</linearGradient>
<linearGradient id="paint13_linear_4048_47" x1="632.51" y1="297.253" x2="713.668" y2="176.602" gradientUnits="userSpaceOnUse">
<stop stop-color="#1CD1C3"/>
<stop offset="0.573968" stop-color="#2E9FDA"/>
</linearGradient>
<linearGradient id="paint14_linear_4048_47" x1="713.757" y1="155.093" x2="641.505" y2="72.7915" gradientUnits="userSpaceOnUse">
<stop offset="0.136063" stop-color="#FFA318"/>
<stop offset="1" stop-color="#FF1F4C"/>
</linearGradient>
<linearGradient id="paint15_linear_4048_47" x1="823.068" y1="165.493" x2="650.998" y2="59.2938" gradientUnits="userSpaceOnUse">
<stop offset="0.0729167" stop-color="#FF9E1A" stop-opacity="0.17"/>
<stop offset="0.38161" stop-color="#FF9E1A"/>
<stop offset="1" stop-color="#FF295C"/>
</linearGradient>
<linearGradient id="paint16_linear_4048_47" x1="1154.03" y1="229.873" x2="1063.92" y2="54.2843" gradientUnits="userSpaceOnUse">
<stop stop-color="#1ADDD8"/>
<stop offset="1" stop-color="#3B99D4"/>
</linearGradient>
<linearGradient id="paint17_linear_4048_47" x1="940.018" y1="296.651" x2="1022.67" y2="185.164" gradientUnits="userSpaceOnUse">
<stop stop-color="#1CD1C3"/>
<stop offset="0.573968" stop-color="#2E9FDA"/>
</linearGradient>
<linearGradient id="paint18_linear_4048_47" x1="1010.19" y1="161.314" x2="931.944" y2="61.3572" gradientUnits="userSpaceOnUse">
<stop offset="0.136063" stop-color="#FFA318"/>
<stop offset="0.618505" stop-color="#FF1F4C"/>
<stop offset="0.96875" stop-color="#FF1F4C" stop-opacity="0.49"/>
</linearGradient>
<linearGradient id="paint19_linear_4048_47" x1="1158.17" y1="225.457" x2="1033.09" y2="155.505" gradientUnits="userSpaceOnUse">
<stop offset="0.0392616" stop-color="#1ADDD8"/>
<stop offset="0.286083" stop-color="#24CAD7"/>
<stop offset="0.40279" stop-color="#1ADCD7"/>
<stop offset="0.748361" stop-color="#FFA318"/>
</linearGradient>
<linearGradient id="paint20_linear_4048_47" x1="1466.62" y1="301.128" x2="1575.57" y2="127.162" gradientUnits="userSpaceOnUse">
<stop offset="0.136063" stop-color="#FF1F4C"/>
<stop offset="0.675606" stop-color="#FFA318"/>
</linearGradient>
</defs>
</svg>
