<svg width="202" height="203" viewBox="0 0 202 203" fill="none" xmlns="http://www.w3.org/2000/svg">
<path d="M57.8772 110.126V19.8773C49.8847 7.57672 40.9238 0.424644 29.4291 0.239258C18.1613 0.313497 8.45325 6.42045 0 19.8773V118.955C7.12533 149.39 14.839 162.498 34.3339 179.775C52.0741 193.112 63.2551 196.639 83.3823 202.337H171.67C184.422 202.337 187.935 199.763 192.27 195.452C196.875 190.872 199.137 188.585 199.137 174.852L201.099 19.8773C192.239 7.05824 183.328 0.182519 171.67 0.760892C158.178 -0.0645707 148.728 5.81816 142.24 19.8773V142.498H92.2111C72.5465 138.039 65.6554 130.136 57.8772 110.126Z" fill="url(#paint0_linear_4054_3665)"/>
<defs>
<linearGradient id="paint0_linear_4054_3665" x1="100.549" y1="0.239258" x2="100.549" y2="202.337" gradientUnits="userSpaceOnUse">
<stop stop-color="#0FF2D7"/>
<stop offset="1" stop-color="#3B99D4"/>
</linearGradient>
</defs>
</svg>
